<svg version="1.1" xmlns="http://www.w3.org/2000/svg" xmlns:xlink="http://www.w3.org/1999/xlink" width="100.42792" height="100.42792" viewBox="0,0,100.42792,100.42792"><defs><radialGradient cx="240" cy="180" r="50.21396" gradientUnits="userSpaceOnUse" id="color-1"><stop offset="0" stop-color="#ffffff"/><stop offset="1" stop-color="#ffffff" stop-opacity="0"/></radialGradient><linearGradient x1="240" y1="144.63426" x2="240" y2="215.36574" gradientUnits="userSpaceOnUse" id="color-2"><stop offset="0" stop-color="#69e145"/><stop offset="1" stop-color="#abbf33"/></linearGradient></defs><g transform="translate(-189.78604,-129.78604)"><g stroke-miterlimit="10"><path d="M189.78604,180c0,-27.7324 22.48156,-50.21396 50.21396,-50.21396c27.7324,0 50.21396,22.48156 50.21396,50.21396c0,27.7324 -22.48156,50.21396 -50.21396,50.21396c-27.7324,0 -50.21396,-22.48156 -50.21396,-50.21396z" fill="url(#color-1)" stroke="#838080" stroke-width="0"/><path d="M204.63426,180c0,-19.53196 15.83378,-35.36574 35.36574,-35.36574c19.53196,0 35.36574,15.83378 35.36574,35.36574c0,19.53196 -15.83378,35.36574 -35.36574,35.36574c-19.53196,0 -35.36574,-15.83378 -35.36574,-35.36574z" fill="url(#color-2)" stroke="#838080" stroke-width="0"/><text transform="translate(213.51929,186.56275) scale(0.5469,0.5469)" font-size="40" xml:space="preserve" fill="#e23b3b" stroke="none" stroke-width="1" font-family="&quot;LINESeedJP_TTF_Rg&quot;, Sans Serif" font-weight="normal" text-anchor="start"><tspan x="0" dy="0">Push</tspan></text></g></g></svg>