<svg version="1.1" xmlns="http://www.w3.org/2000/svg" xmlns:xlink="http://www.w3.org/1999/xlink" width="229.54039" height="308.10087" viewBox="0,0,229.54039,308.10087"><defs><radialGradient cx="248.11334" cy="383.76074" r="80.71353" gradientUnits="userSpaceOnUse" id="color-1"><stop offset="0" stop-color="#757575"/><stop offset="1" stop-color="#757575" stop-opacity="0"/></radialGradient><linearGradient x1="171.19825" y1="383.76074" x2="325.02843" y2="383.76074" gradientUnits="userSpaceOnUse" id="color-2"><stop offset="0" stop-color="#ae6bff"/><stop offset="1" stop-color="#3299fc"/></linearGradient><radialGradient cx="248.11334" cy="477.21231" r="80.71353" gradientUnits="userSpaceOnUse" id="color-3"><stop offset="0" stop-color="#757575"/><stop offset="1" stop-color="#757575" stop-opacity="0"/></radialGradient><linearGradient x1="171.19825" y1="477.21231" x2="325.02843" y2="477.21231" gradientUnits="userSpaceOnUse" id="color-4"><stop offset="0" stop-color="#ae6bff"/><stop offset="1" stop-color="#3299fc"/></linearGradient><radialGradient cx="248.11334" cy="559.06769" r="80.71353" gradientUnits="userSpaceOnUse" id="color-5"><stop offset="0" stop-color="#757575"/><stop offset="1" stop-color="#757575" stop-opacity="0"/></radialGradient><linearGradient x1="171.19825" y1="559.06769" x2="325.02843" y2="559.06769" gradientUnits="userSpaceOnUse" id="color-6"><stop offset="0" stop-color="#ae6bff"/><stop offset="1" stop-color="#3299fc"/></linearGradient><radialGradient cx="180.00001" cy="301.69805" r="80.71353" gradientUnits="userSpaceOnUse" id="color-7"><stop offset="0" stop-color="#757575"/><stop offset="1" stop-color="#757575" stop-opacity="0"/></radialGradient><linearGradient x1="103.08492" y1="301.69805" x2="256.9151" y2="301.69805" gradientUnits="userSpaceOnUse" id="color-8"><stop offset="0" stop-color="#ae6bff"/><stop offset="1" stop-color="#3299fc"/></linearGradient></defs><g transform="translate(-99.28647,-276.33243)"><g stroke-miterlimit="10"><g><path d="M167.39981,381.53821c0,-8.33035 9.63098,-23.14309 22.60022,-23.14309c29.09079,0 114.25287,0 114.25287,0c0,0 10.16479,0.42283 15.71173,6.09196c2.61197,2.6695 5.24018,5.35634 6.81501,8.61412c1.65249,3.4184 2.04721,7.53496 2.04721,9.67875c0,3.91123 -0.96559,13.16115 -6.77,18.05644c-0.67869,0.57239 -3.55048,4.31295 -7.60511,6.03507c-4.59569,1.95191 -10.39084,1.87095 -10.39084,1.87095c0,0 -83.35179,0.38397 -111.49033,0.38397c-6.26525,0 -14.50275,-3.47481 -19.48911,-9.77576c-4.18428,-5.2874 -5.68167,-13.90076 -5.68167,-17.81239z" fill="url(#color-1)" stroke="#838080" stroke-width="0"/><path d="M171.19826,381.6428c0,-7.93832 9.17773,-22.05396 21.53663,-22.05396c27.72175,0 108.87605,0 108.87605,0c0,0 9.68643,0.40294 14.97233,5.80527c2.48905,2.54387 4.99357,5.10427 6.49429,8.20873c1.57472,3.25753 1.95087,7.18036 1.95087,9.22326c0,3.72716 -0.92014,12.54177 -6.45139,17.20669c-0.64675,0.54546 -3.3834,4.10998 -7.24722,5.75105c-4.37941,1.86005 -9.90183,1.7829 -9.90183,1.7829c0,0 -79.4292,0.3659 -106.24352,0.3659c-5.97041,0 -13.82024,-3.31128 -18.57194,-9.3157c-3.98736,-5.03857 -5.41428,-13.24658 -5.41428,-16.97413z" fill="url(#color-2)" stroke="#838080" stroke-width="0"/><text transform="translate(198.00212,388.60294) scale(0.41969,0.41969)" font-size="40" xml:space="preserve" fill="#ffffff" stroke="none" stroke-width="1" font-family="&quot;LINESeedJP_TTF_Th&quot;, Sans Serif" font-weight="normal" text-anchor="start"><tspan x="0" dy="0">ダウンロード</tspan></text></g><g><path d="M167.39981,474.98978c0,-8.33035 9.63098,-23.14309 22.60022,-23.14309c29.09079,0 114.25287,0 114.25287,0c0,0 10.16479,0.42283 15.71173,6.09196c2.61197,2.6695 5.24018,5.35634 6.81501,8.61412c1.65249,3.4184 2.04721,7.53496 2.04721,9.67875c0,3.91123 -0.96559,13.16115 -6.77,18.05644c-0.67869,0.57239 -3.55048,4.31295 -7.60511,6.03506c-4.59569,1.95191 -10.39084,1.87095 -10.39084,1.87095c0,0 -83.35179,0.38397 -111.49033,0.38397c-6.26525,0 -14.50275,-3.47481 -19.48911,-9.77576c-4.18428,-5.2874 -5.68167,-13.90076 -5.68167,-17.81239z" fill="url(#color-3)" stroke="#838080" stroke-width="0"/><path d="M171.19826,475.09437c0,-7.93832 9.17773,-22.05396 21.53663,-22.05396c27.72175,0 108.87605,0 108.87605,0c0,0 9.68643,0.40294 14.97233,5.80527c2.48905,2.54387 4.99357,5.10427 6.49429,8.20873c1.57472,3.25753 1.95087,7.18036 1.95087,9.22326c0,3.72716 -0.92014,12.54177 -6.45139,17.20669c-0.64675,0.54546 -3.3834,4.10998 -7.24722,5.75105c-4.37941,1.86005 -9.90183,1.7829 -9.90183,1.7829c0,0 -79.4292,0.3659 -106.24352,0.3659c-5.97041,0 -13.82024,-3.31128 -18.57194,-9.3157c-3.98736,-5.03857 -5.41428,-13.24658 -5.41428,-16.97413z" fill="url(#color-4)" stroke="#838080" stroke-width="0"/><text transform="translate(198.00212,482.05451) scale(0.41969,0.41969)" font-size="40" xml:space="preserve" fill="#ffffff" stroke="none" stroke-width="1" font-family="&quot;LINESeedJP_TTF_Th&quot;, Sans Serif" font-weight="normal" text-anchor="start"><tspan x="0" dy="0">ダウンロード</tspan></text></g><g><path d="M167.39981,556.84516c0,-8.33035 9.63098,-23.14309 22.60022,-23.14309c29.09079,0 114.25287,0 114.25287,0c0,0 10.16479,0.42283 15.71173,6.09196c2.61197,2.6695 5.24018,5.35634 6.81501,8.61411c1.65249,3.4184 2.04721,7.53496 2.04721,9.67875c0,3.91122 -0.96559,13.16114 -6.77,18.05644c-0.67869,0.57239 -3.55048,4.31295 -7.60511,6.03507c-4.59569,1.95191 -10.39084,1.87094 -10.39084,1.87094c0,0 -83.35179,0.38397 -111.49033,0.38397c-6.26525,0 -14.50275,-3.47481 -19.48911,-9.77575c-4.18428,-5.2874 -5.68167,-13.90076 -5.68167,-17.81239z" fill="url(#color-5)" stroke="#838080" stroke-width="0"/><path d="M171.19826,556.94976c0,-7.93832 9.17773,-22.05396 21.53663,-22.05396c27.72175,0 108.87605,0 108.87605,0c0,0 9.68643,0.40294 14.97233,5.80527c2.48905,2.54387 4.99357,5.10427 6.49429,8.20873c1.57472,3.25753 1.95087,7.18036 1.95087,9.22326c0,3.72716 -0.92014,12.54177 -6.45139,17.20669c-0.64675,0.54546 -3.3834,4.10998 -7.24722,5.75105c-4.37941,1.86005 -9.90183,1.7829 -9.90183,1.7829c0,0 -79.4292,0.3659 -106.24352,0.3659c-5.97041,0 -13.82024,-3.31128 -18.57194,-9.3157c-3.98736,-5.03857 -5.41428,-13.24658 -5.41428,-16.97413z" fill="url(#color-6)" stroke="#838080" stroke-width="0"/><text transform="translate(198.00212,563.90989) scale(0.41969,0.41969)" font-size="40" xml:space="preserve" fill="#ffffff" stroke="none" stroke-width="1" font-family="&quot;LINESeedJP_TTF_Th&quot;, Sans Serif" font-weight="normal" text-anchor="start"><tspan x="0" dy="0">ダウンロード</tspan></text></g><g><path d="M99.28649,299.47552c0,-8.33035 9.63098,-23.14309 22.60022,-23.14309c29.09079,0 114.25287,0 114.25287,0c0,0 10.16479,0.42283 15.71173,6.09196c2.61197,2.6695 5.24018,5.35634 6.81501,8.61412c1.65249,3.4184 2.04721,7.53496 2.04721,9.67875c0,3.91123 -0.96559,13.16115 -6.77,18.05644c-0.67869,0.57239 -3.55048,4.31295 -7.60511,6.03507c-4.59569,1.95191 -10.39084,1.87095 -10.39084,1.87095c0,0 -83.35179,0.38397 -111.49033,0.38397c-6.26525,0 -14.50275,-3.47481 -19.48911,-9.77576c-4.18428,-5.2874 -5.68167,-13.90076 -5.68167,-17.81239z" fill="url(#color-7)" stroke="#838080" stroke-width="0"/><path d="M103.08493,299.58011c0,-7.93832 9.17773,-22.05396 21.53663,-22.05396c27.72175,0 108.87605,0 108.87605,0c0,0 9.68643,0.40294 14.97233,5.80527c2.48905,2.54387 4.99357,5.10427 6.49429,8.20873c1.57472,3.25753 1.95087,7.18036 1.95087,9.22326c0,3.72716 -0.92014,12.54177 -6.45139,17.20669c-0.64675,0.54546 -3.3834,4.10998 -7.24722,5.75105c-4.37941,1.86005 -9.90183,1.7829 -9.90183,1.7829c0,0 -79.4292,0.3659 -106.24352,0.3659c-5.97041,0 -13.82024,-3.31128 -18.57194,-9.3157c-3.98736,-5.03857 -5.41428,-13.24658 -5.41428,-16.97413z" fill="url(#color-8)" stroke="#838080" stroke-width="0"/><text transform="translate(116.78958,306.00541) scale(0.35895,0.35895)" font-size="40" xml:space="preserve" fill="#ffffff" stroke="none" stroke-width="1" font-family="&quot;LINESeedJP_TTF_Th&quot;, Sans Serif" font-weight="normal" text-anchor="start"><tspan x="0" dy="0">V1.2.0　更新内容 &gt;</tspan></text></g></g></g></svg>