<svg version="1.1" xmlns="http://www.w3.org/2000/svg" xmlns:xlink="http://www.w3.org/1999/xlink" width="319.31832" height="534.03303" viewBox="0,0,319.31832,534.03303"><g transform="translate(-20.34084,-91.27177)"><g stroke-miterlimit="10"><path d="M20.84084,596.8c0,-98.26723 0,-424.33594 0,-478c0,-14.63616 13.0676,-27.02823 26.75917,-27.02823c35.50515,0 195.17218,0 262,0c18.23624,0 29.55915,10.86861 29.55915,24.02823c0,52.28812 0,393.64661 0,486c0,14.62435 -13.51129,23.0048 -27.55915,23.0048c-36.52231,0 -200.85681,0 -265,0c-15.99443,0 -25.75917,-10.30866 -25.75917,-28.0048z" fill-opacity="0.80784" fill="#f2f2f2" stroke-opacity="0.80784" stroke="#bababa"/><text transform="translate(95.63515,155.20975) scale(1.05456,1.05456)" font-size="40" xml:space="preserve" fill-opacity="0.55686" fill="#000000" stroke="none" font-family="&quot;LINESeedJP_TTF_0&quot;, Sans Serif" font-weight="normal" text-anchor="start"><tspan x="0" dy="0">更新内容</tspan></text><text transform="translate(140.33516,611.35842) scale(0.47206,0.47206)" font-size="40" xml:space="preserve" fill-opacity="0.55686" fill="#000000" stroke="none" font-family="&quot;LINESeedJP_TTF_Th&quot;, Sans Serif" font-weight="normal" text-anchor="start"><tspan x="0" dy="0">画面タップで戻ります</tspan></text></g></g></svg>