<svg version="1.1" xmlns="http://www.w3.org/2000/svg" xmlns:xlink="http://www.w3.org/1999/xlink" width="184.17839" height="58.08102" viewBox="0,0,184.17839,58.08102"><defs><linearGradient x1="146.82881" y1="170.92743" x2="334.80191" y2="170.92743" gradientUnits="userSpaceOnUse" id="color-1"><stop offset="0" stop-color="#3ff21b"/><stop offset="1" stop-color="#1bf2d9" stop-opacity="0.8"/></linearGradient><linearGradient x1="147.64787" y1="200.41341" x2="290.98247" y2="200.41341" gradientUnits="userSpaceOnUse" id="color-2"><stop offset="0" stop-color="#3ff21b"/><stop offset="1" stop-color="#1bf2d9" stop-opacity="0.8"/></linearGradient></defs><g transform="translate(-147.9108,-150.95949)"><g stroke="none" stroke-miterlimit="10"><g><path d="M164.05341,161.93646v5.58444h-16.14261v-5.58444zM151.5756,155.51429h7.43432v24.99051c0,0.68641 0.10472,1.22158 0.31415,1.60551c0.20939,0.37234 0.50028,0.63403 0.87254,0.78515c0.38393,0.15153 0.82606,0.22688 1.32634,0.22688c0.34904,0 0.69804,-0.02908 1.04708,-0.08723c0.34904,-0.06962 0.61663,-0.12204 0.80276,-0.15685l1.16924,5.5319c-0.37226,0.11631 -0.89584,0.25022 -1.57062,0.40134c-0.67478,0.16299 -1.49502,0.2621 -2.46065,0.29691c-1.79168,0.06962 -3.3623,-0.16873 -4.7119,-0.71544c-1.33793,-0.54713 -2.37919,-1.39608 -3.12379,-2.54808c-0.7446,-1.15159 -1.11109,-2.60623 -1.09946,-4.36282zM193.88679,161.93646l-9.37159,26.80541h-8.37668l-9.37142,-26.80541h7.85314l5.56703,19.17911h0.27922l5.54955,-19.17911zM216.70894,189.24805c-1.71019,0 -3.23445,-0.29691 -4.57237,-0.89031c-1.33793,-0.60487 -2.39655,-1.49478 -3.17629,-2.66971c-0.76786,-1.18681 -1.15159,-2.66439 -1.15159,-4.43281c0,-1.48921 0.27315,-2.7399 0.82028,-3.75209c0.54672,-1.01219 1.29124,-1.82657 2.23356,-2.4432c0.94232,-0.61663 2.01283,-1.08197 3.2111,-1.39612c1.21015,-0.31411 2.47805,-0.53517 3.80451,-0.66315c1.55907,-0.16287 2.8155,-0.31411 3.76929,-0.45376c0.9542,-0.15124 1.6463,-0.37226 2.07671,-0.66315c0.43041,-0.29085 0.64582,-0.7213 0.64582,-1.2914v-0.10472c0,-1.10523 -0.34892,-1.96037 -1.04716,-2.56536c-0.68637,-0.60495 -1.6635,-0.90747 -2.93181,-0.90747c-1.33793,0 -2.40229,0.2967 -3.19349,0.89003c-0.79121,0.58173 -1.31458,1.31466 -1.57054,2.19888l-6.87597,-0.55843c0.34892,-1.62881 1.03529,-3.03656 2.0591,-4.22325c1.02382,-1.19832 2.34454,-2.11746 3.96177,-2.75735c1.62869,-0.65152 3.51334,-0.97726 5.65394,-0.97726c1.48945,0 2.91461,0.1745 4.27588,0.52354c1.37274,0.34904 2.58862,0.89003 3.64725,1.623c1.0705,0.73293 1.91372,1.67534 2.53047,2.82713c0.61675,1.14017 0.92471,2.50717 0.92471,4.10109v18.07969h-7.05001v-3.71728h-0.20968c-0.43041,0.83789 -1.00621,1.57668 -1.7278,2.21636c-0.72118,0.62822 -1.58774,1.12292 -2.60009,1.48331c-1.01235,0.34933 -2.18155,0.52379 -3.5076,0.52379zM218.83807,184.11708c1.09344,0 2.0591,-0.215 2.89659,-0.64542c0.83789,-0.44229 1.49518,-1.03569 1.97228,-1.78017c0.47669,-0.7446 0.71544,-1.58811 0.71544,-2.53047v-2.84458c-0.23261,0.15124 -0.55286,0.29085 -0.95993,0.41882c-0.3956,0.11635 -0.84363,0.22688 -1.34366,0.33159c-0.50044,0.09304 -1.00048,0.18031 -1.50092,0.26177c-0.50003,0.06978 -0.95379,0.13379 -1.36127,0.19195c-0.87229,0.12798 -1.63442,0.33159 -2.28598,0.61081c-0.65156,0.27922 -1.15773,0.65733 -1.51853,1.13435c-0.36038,0.46539 -0.54099,1.04708 -0.54099,1.74516c0,1.01219 0.36653,1.78587 1.09958,2.32112c0.74452,0.52338 1.68684,0.78506 2.82738,0.78506zM259.87477,169.58017l-6.80594,0.41886c-0.11631,-0.58173 -0.36653,-1.10527 -0.75025,-1.57066c-0.38414,-0.47698 -0.89031,-0.85509 -1.51853,-1.13435c-0.61634,-0.29085 -1.35513,-0.43627 -2.21636,-0.43627c-1.15159,0 -2.12299,0.24432 -2.9142,0.73297c-0.79121,0.47698 -1.18681,1.11686 -1.18681,1.91966c0,0.63989 0.25595,1.18087 0.76786,1.62296c0.51191,0.44213 1.39035,0.79698 2.63531,1.06457l4.85167,0.97726c2.60582,0.53521 4.54862,1.39612 5.82839,2.58285c1.27977,1.18669 1.91986,2.74568 1.91986,4.67697c0,1.75691 -0.51764,3.29837 -1.55334,4.62483c-1.02382,1.32605 -2.43136,2.36174 -4.22305,3.10627c-1.78022,0.73305 -3.83359,1.09917 -6.16052,1.09917c-3.54856,0 -6.37552,-0.73879 -8.48131,-2.21636c-2.09432,-1.48904 -3.32168,-3.51334 -3.68206,-6.07292l7.31211,-0.38393c0.22074,1.08201 0.75599,1.90823 1.60535,2.4783c0.84936,0.55819 1.93706,0.83748 3.26352,0.83748c1.30312,0 2.34987,-0.25022 3.14108,-0.75025c0.80308,-0.51191 1.21015,-1.16941 1.22162,-1.97216c-0.01147,-0.67478 -0.2965,-1.22744 -0.85509,-1.65789c-0.55819,-0.44208 -1.41942,-0.77949 -2.58289,-1.01219l-4.64199,-0.92492c-2.6177,-0.52354 -4.56623,-1.43101 -5.846,-2.72242c-1.26831,-1.29144 -1.90225,-2.93766 -1.90225,-4.93878c0,-1.72186 0.46522,-3.20525 1.39608,-4.45013c0.94232,-1.24488 2.26264,-2.20469 3.96136,-2.87947c1.71019,-0.67482 3.71155,-1.01219 6.00326,-1.01219c3.38556,0 6.04995,0.71549 7.99275,2.14654c1.95467,1.43101 3.0948,3.37975 3.42037,5.84621zM272.81092,189.24805c-1.71019,0 -3.23445,-0.29691 -4.57237,-0.89031c-1.33793,-0.60487 -2.39655,-1.49478 -3.17629,-2.66971c-0.76786,-1.18681 -1.15159,-2.66439 -1.15159,-4.43281c0,-1.48921 0.27356,-2.7399 0.82028,-3.75209c0.54672,-1.01219 1.29124,-1.82657 2.23356,-2.4432c0.94232,-0.61663 2.01283,-1.08197 3.2111,-1.39612c1.21015,-0.31411 2.47805,-0.53517 3.80451,-0.66315c1.55907,-0.16287 2.8155,-0.31411 3.7697,-0.45376c0.95379,-0.15124 1.64589,-0.37226 2.07671,-0.66315c0.43041,-0.29085 0.64542,-0.7213 0.64542,-1.2914v-0.10472c0,-1.10523 -0.34892,-1.96037 -1.04716,-2.56536c-0.68637,-0.60495 -1.6635,-0.90747 -2.93181,-0.90747c-1.33793,0 -2.40229,0.2967 -3.19349,0.89003c-0.79121,0.58173 -1.31458,1.31466 -1.57054,2.19888l-6.87597,-0.55843c0.34892,-1.62881 1.03529,-3.03656 2.0591,-4.22325c1.02382,-1.19832 2.34454,-2.11746 3.96177,-2.75735c1.62869,-0.65152 3.51334,-0.97726 5.65435,-0.97726c1.48904,0 2.9142,0.1745 4.27547,0.52354c1.37274,0.34904 2.58862,0.89003 3.64725,1.623c1.0705,0.73293 1.91372,1.67534 2.53047,2.82713c0.61675,1.14017 0.92512,2.50717 0.92512,4.10109v18.07969h-7.05042v-3.71728h-0.20968c-0.43041,0.83789 -1.00621,1.57668 -1.72739,2.21636c-0.72159,0.62822 -1.58815,1.12292 -2.6005,1.48331c-1.01194,0.34933 -2.18155,0.52379 -3.5076,0.52379zM274.94005,184.11708c1.09344,0 2.0591,-0.215 2.897,-0.64542c0.83748,-0.44229 1.49478,-1.03569 1.97187,-1.78017c0.4771,-0.7446 0.71544,-1.58811 0.71544,-2.53047v-2.84458c-0.23261,0.15124 -0.55245,0.29085 -0.95993,0.41882c-0.3956,0.11635 -0.84322,0.22688 -1.34366,0.33159c-0.50044,0.09304 -1.00048,0.18031 -1.50092,0.26177c-0.50003,0.06978 -0.95379,0.13379 -1.36127,0.19195c-0.87229,0.12798 -1.63442,0.33159 -2.28598,0.61081c-0.65156,0.27922 -1.15773,0.65733 -1.51812,1.13435c-0.36079,0.46539 -0.54099,1.04708 -0.54099,1.74516c0,1.01219 0.36653,1.78587 1.09917,2.32112c0.74452,0.52338 1.68725,0.78506 2.82738,0.78506zM301.10845,173.24499v15.49689h-7.43456v-35.74057h7.22488v13.6645h0.31452c0.60487,-1.58229 1.582,-2.82136 2.93181,-3.7172c1.34939,-0.90747 3.04238,-1.36119 5.07814,-1.36119c1.86171,0 3.48467,0.40719 4.86887,1.22158c1.39608,0.8028 2.47846,1.96041 3.24632,3.47283c0.77933,1.50084 1.16306,3.29833 1.15159,5.39253v17.06751h-7.43415v-15.74121c0.01147,-1.65207 -0.40748,-2.93766 -1.25684,-3.85677c-0.83748,-0.9191 -2.01242,-1.37867 -3.52521,-1.37867c-1.01194,0 -1.90799,0.21525 -2.68732,0.6457c-0.76786,0.43045 -1.37274,1.05871 -1.81503,1.88477c-0.43041,0.81439 -0.65156,1.7975 -0.66302,2.94929zM324.34053,188.74188v-26.80541h7.43456v26.80541zM328.07542,158.48107c-1.10531,0 -2.05378,-0.36649 -2.84458,-1.09946c-0.77974,-0.7446 -1.16961,-1.63463 -1.16961,-2.67008c0,-1.02382 0.38987,-1.90221 1.16961,-2.63515c0.7908,-0.7446 1.73926,-1.1169 2.84458,-1.1169c1.10491,0 2.04764,0.3723 2.82697,1.1169c0.79121,0.73293 1.18681,1.61133 1.18681,2.63515c0,1.03545 -0.3956,1.92548 -1.18681,2.67008c-0.77933,0.73297 -1.72206,1.09946 -2.82697,1.09946z" fill-opacity="0.8" fill="url(#color-1)"/><path d="M154.75059,208.80872h-5.30304v-16.3811h5.47103c1.60506,0 2.98349,0.32803 4.13529,0.98368c1.1518,0.65074 2.03429,1.58651 2.64751,2.80772c0.61855,1.21589 0.92783,2.67421 0.92783,4.37498c0,1.7065 -0.31194,3.17302 -0.93581,4.39955c-0.61855,1.22613 -1.51439,2.17009 -2.68752,2.83147c-1.17313,0.65565 -2.59153,0.98368 -4.25528,0.98368zM151.91911,206.64928h2.69551c1.24779,0 2.28492,-0.23466 3.11147,-0.70398c0.82651,-0.47464 1.44506,-1.15978 1.85565,-2.05583c0.41059,-0.90096 0.61589,-1.99972 0.61589,-3.29547c0,-1.2851 -0.2053,-2.37526 -0.61589,-3.27131c-0.40527,-0.89564 -1.01047,-1.57586 -1.81568,-2.03945c-0.80517,-0.46399 -1.80499,-0.6962 -2.99946,-0.6962h-2.84749zM166.32056,192.42762l4.55919,13.34159h0.18396l4.55919,-13.34159h2.67155l-5.89494,16.3811h-2.85551l-5.89494,-16.3811zM185.96309,208.80872h-5.30305v-16.3811h5.471c1.60506,0 2.98353,0.32803 4.13512,0.98368c1.152,0.65074 2.03453,1.58651 2.64759,2.80772c0.6188,1.21589 0.92799,2.67421 0.92799,4.37498c0,1.7065 -0.31206,3.17302 -0.93577,4.39955c-0.6188,1.22613 -1.51443,2.17009 -2.68773,2.83147c-1.17289,0.65565 -2.59145,0.98368 -4.25515,0.98368zM183.13158,206.64928h2.69551c1.24779,0 2.28496,-0.23466 3.11138,-0.70398c0.82643,-0.47464 1.44522,-1.15978 1.85557,-2.05583c0.41076,-0.90096 0.61593,-1.99972 0.61593,-3.29547c0,-1.2851 -0.20517,-2.37526 -0.61593,-3.27131c-0.40502,-0.89564 -1.0103,-1.57586 -1.81544,-2.03945c-0.80513,-0.46399 -1.80507,-0.6962 -2.99954,-0.6962h-2.84749zM207.45116,209.04051c-1.09835,0 -2.04477,-0.19985 -2.83925,-0.59955c-0.78916,-0.40011 -1.39731,-0.94396 -1.82363,-1.63197c-0.42673,-0.69333 -0.64009,-1.47717 -0.64009,-2.35151c0,-0.66671 0.13883,-1.25848 0.41608,-1.77571c0.27725,-0.52256 0.66384,-1.00498 1.15978,-1.44768c0.49594,-0.4427 1.06887,-0.88786 1.71961,-1.33588l2.6394,-1.86376c0.44802,-0.29322 0.79735,-0.60241 1.04798,-0.92758c0.25063,-0.3309 0.37595,-0.73879 0.37595,-1.22367c0,-0.38414 -0.16545,-0.75189 -0.49594,-1.10409c-0.33049,-0.35178 -0.77319,-0.52788 -1.32769,-0.52788c-0.38414,0 -0.72282,0.09337 -1.01604,0.28012c-0.2879,0.18633 -0.51437,0.42632 -0.67982,0.71995c-0.16013,0.2879 -0.23998,0.59177 -0.23998,0.91161c0,0.37349 0.10156,0.74944 0.30387,1.12784c0.20804,0.3784 0.47464,0.77073 0.79981,1.17575c0.32557,0.40011 0.66671,0.81578 1.02382,1.24783l7.60697,9.09438h-2.7037l-6.29485,-7.39852c-0.52788,-0.62412 -1.01849,-1.21056 -1.47184,-1.75974c-0.45335,-0.5545 -0.8211,-1.11473 -1.10368,-1.67988c-0.27725,-0.57047 -0.41608,-1.1864 -0.41608,-1.84779c0,-0.75189 0.17077,-1.41819 0.51191,-1.99931c0.34687,-0.58685 0.82929,-1.04511 1.44768,-1.37601c0.6188,-0.33049 1.34407,-0.49594 2.17582,-0.49594c0.8424,0 1.56521,0.16545 2.16763,0.49594c0.60774,0.32557 1.0746,0.76008 1.39976,1.30394c0.33049,0.53853 0.49594,1.12784 0.49594,1.76752c0,0.77851 -0.19453,1.46652 -0.58399,2.06361c-0.38373,0.59218 -0.91447,1.13603 -1.59183,1.63197l-3.28728,2.42358c-0.64009,0.46891 -1.08525,0.9329 -1.33588,1.39157c-0.24531,0.45335 -0.36776,0.808 -0.36776,1.06395c0,0.46932 0.11999,0.90383 0.35997,1.30353c0.24531,0.40011 0.58644,0.71995 1.02382,0.95993c0.44229,0.23998 0.95952,0.35997 1.5517,0.35997c0.60774,0 1.19951,-0.13064 1.77571,-0.39192c0.58112,-0.2666 1.10654,-0.64787 1.57545,-1.14381c0.47464,-0.49594 0.85059,-1.09057 1.12784,-1.78349c0.27725,-0.69333 0.41608,-1.46938 0.41608,-2.32775h2.15944c0,1.05576 -0.11999,1.94894 -0.35997,2.67954c-0.23957,0.72527 -0.53034,1.31704 -0.87147,1.77571c-0.33622,0.45335 -0.6532,0.80759 -0.95215,1.06354c-0.09583,0.08559 -0.18633,0.17077 -0.27193,0.25595c-0.08518,0.08559 -0.17569,0.17077 -0.27193,0.25595c-0.5545,0.56023 -1.22653,0.97345 -2.01569,1.24005c-0.78384,0.2666 -1.55702,0.3997 -2.31956,0.3997zM224.94003,192.42762l4.55927,13.34159h0.18388l4.55927,-13.34159h2.67176l-5.89515,16.3811h-2.85563l-5.89474,-16.3811zM241.75113,192.42762v16.3811h-2.4715v-16.3811zM250.65344,208.80872h-5.30297v-16.3811h5.47129c1.60494,0 2.98341,0.32803 4.135,0.98368c1.152,0.65074 2.03453,1.58651 2.64759,2.80772c0.6188,1.21589 0.92799,2.67421 0.92799,4.37498c0,1.7065 -0.31206,3.17302 -0.93577,4.39955c-0.6188,1.22613 -1.51443,2.17009 -2.68773,2.83147c-1.1733,0.65565 -2.59149,0.98368 -4.2554,0.98368zM247.82196,206.64928h2.69551c1.24783,0 2.28516,-0.23466 3.11159,-0.70398c0.82643,-0.47464 1.44522,-1.15978 1.85557,-2.05583c0.41076,-0.90096 0.61593,-1.99972 0.61593,-3.29547c0,-1.2851 -0.20517,-2.37526 -0.61593,-3.27131c-0.40502,-0.89564 -1.0103,-1.57586 -1.81544,-2.03945c-0.80513,-0.46399 -1.8052,-0.6962 -2.99938,-0.6962h-2.84785zM261.60584,208.80872v-16.3811h10.27013v2.1275h-7.79863v4.99132h7.26256v2.11971h-7.26256v5.01507h7.89446v2.1275zM289.40661,200.61817c0,1.74909 -0.31984,3.25288 -0.95952,4.51135c-0.64009,1.25315 -1.5173,2.218 -2.63162,2.89536c-1.10941,0.67203 -2.37034,1.00785 -3.78321,1.00785c-1.4186,0 -2.68486,-0.33581 -3.7996,-1.00785c-1.109,-0.67736 -1.98375,-1.64507 -2.62343,-2.90355c-0.64009,-1.25848 -0.95993,-2.7594 -0.95993,-4.50316c0,-1.74909 0.31984,-3.25001 0.95993,-4.50316c0.63968,-1.25848 1.51443,-2.22373 2.62343,-2.89536c1.11473,-0.67736 2.38099,-1.01604 3.7996,-1.01604c1.41287,0 2.6738,0.33868 3.78321,1.01604c1.11432,0.67163 1.99153,1.63688 2.63162,2.89536c0.63968,1.25315 0.95952,2.75407 0.95952,4.50316zM286.95927,200.61817c0,-1.33301 -0.21623,-2.45553 -0.64787,-3.36754c-0.42673,-0.91693 -1.01317,-1.61026 -1.75974,-2.07958c-0.74124,-0.47464 -1.58119,-0.71176 -2.51941,-0.71176c-0.94396,0 -1.78636,0.23712 -2.5276,0.71176c-0.74124,0.46932 -1.3281,1.16265 -1.75974,2.07958c-0.42673,0.91202 -0.64009,2.03453 -0.64009,3.36754c0,1.33301 0.21336,2.45839 0.64009,3.37533c0.43164,0.91202 1.01849,1.60494 1.75974,2.07958c0.74124,0.46932 1.58364,0.70398 2.5276,0.70398c0.93823,0 1.77817,-0.23466 2.51941,-0.70398c0.74657,-0.47464 1.33301,-1.16756 1.75974,-2.07958c0.43164,-0.91693 0.64787,-2.04231 0.64787,-3.37533z" fill-opacity="0.8" fill="url(#color-2)"/></g></g></g></svg>