<svg version="1.1" xmlns="http://www.w3.org/2000/svg" xmlns:xlink="http://www.w3.org/1999/xlink" width="183.98267" height="63.39068" viewBox="0,0,183.98267,63.39068"><defs><linearGradient x1="146.92782" y1="168.25138" x2="334.70116" y2="168.25138" gradientUnits="userSpaceOnUse" id="color-1"><stop offset="0" stop-color="#3ff21b"/><stop offset="1" stop-color="#1bf2d9" stop-opacity="0.8"/></linearGradient><linearGradient x1="187.42796" y1="200.97876" x2="331.83752" y2="200.97876" gradientUnits="userSpaceOnUse" id="color-2"><stop offset="0" stop-color="#3ff21b"/><stop offset="1" stop-color="#1bf2d9" stop-opacity="0.8"/></linearGradient></defs><g transform="translate(-148.00867,-148.30466)"><g stroke="none" stroke-miterlimit="10"><g><path d="M164.13412,159.26997v5.5785h-16.12545v-5.5785zM151.66957,152.85462h7.42642v24.96395c0,0.68568 0.1046,1.22028 0.31381,1.60381c0.20917,0.37195 0.49975,0.63336 0.87161,0.78431c0.38352,0.15136 0.82518,0.22664 1.32493,0.22664c0.34867,0 0.6973,-0.02905 1.04597,-0.08714c0.34867,-0.06955 0.61597,-0.12191 0.8019,-0.15668l1.168,5.52602c-0.37186,0.11618 -0.89489,0.24996 -1.56895,0.40091c-0.67406,0.16282 -1.49343,0.26182 -2.45803,0.29659c-1.78978,0.06955 -3.35873,-0.16855 -4.70689,-0.71468c-1.3365,-0.54655 -2.37666,-1.3946 -3.12047,-2.54537c-0.74381,-1.15037 -1.10991,-2.60346 -1.09829,-4.35818zM193.93579,159.26997l-9.36163,26.77693h-8.36778l-9.36146,-26.77693h7.84479l5.56112,19.15873h0.27892l5.54365,-19.15873zM216.73369,186.55253c-1.70837,0 -3.23101,-0.29659 -4.56751,-0.88937c-1.3365,-0.60423 -2.39401,-1.49319 -3.17292,-2.66687c-0.76705,-1.18555 -1.15037,-2.66155 -1.15037,-4.4281c0,-1.48762 0.27286,-2.73699 0.81941,-3.7481c0.54614,-1.01111 1.28987,-1.82463 2.23119,-2.4406c0.94132,-0.61597 2.01069,-1.08082 3.20769,-1.39464c1.20887,-0.31377 2.47542,-0.5346 3.80047,-0.66244c1.55741,-0.1627 2.81251,-0.31377 3.76528,-0.45327c0.95318,-0.15108 1.64455,-0.37186 2.07451,-0.66244c0.42996,-0.29054 0.64514,-0.72053 0.64514,-1.29003v-0.1046c0,-1.10406 -0.34855,-1.95828 -1.04605,-2.56264c-0.68564,-0.60431 -1.66173,-0.90651 -2.92869,-0.90651c-1.3365,0 -2.39974,0.29639 -3.1901,0.88908c-0.79037,0.58112 -1.31319,1.31327 -1.56887,2.19654l-6.86866,-0.55784c0.34855,-1.62708 1.03419,-3.03334 2.05692,-4.21876c1.02273,-1.19704 2.34205,-2.11521 3.95756,-2.75442c1.62696,-0.65082 3.5096,-0.97622 5.64793,-0.97622c1.48787,0 2.91151,0.17431 4.27133,0.52298c1.37128,0.34867 2.58587,0.88908 3.64338,1.62127c1.06937,0.73215 1.91169,1.67356 2.52778,2.82413c0.61609,1.13895 0.92373,2.5045 0.92373,4.09673v18.06048h-7.04252v-3.71333h-0.20946c-0.42996,0.837 -1.00514,1.57501 -1.72596,2.21401c-0.72041,0.62755 -1.58605,1.12173 -2.59733,1.48173c-1.01128,0.34896 -2.17923,0.52323 -3.50388,0.52323zM218.86056,181.42702c1.09228,0 2.05692,-0.21477 2.89351,-0.64473c0.837,-0.44182 1.4936,-1.03459 1.97019,-1.77828c0.47618,-0.74381 0.71468,-1.58642 0.71468,-2.52778v-2.84155c-0.23236,0.15108 -0.55227,0.29054 -0.95891,0.41838c-0.39518,0.11622 -0.84273,0.22664 -1.34223,0.33124c-0.49991,0.09295 -0.99941,0.18012 -1.49932,0.26149c-0.4995,0.06971 -0.95278,0.13365 -1.35982,0.19174c-0.87137,0.12784 -1.63269,0.33124 -2.28355,0.61016c-0.65087,0.27892 -1.1565,0.65663 -1.51691,1.13314c-0.36,0.46489 -0.54041,1.04597 -0.54041,1.74331c0,1.01111 0.36614,1.78397 1.09841,2.31865c0.74373,0.52282 1.68505,0.78423 2.82437,0.78423zM259.85365,166.90555l-6.7987,0.41842c-0.11618,-0.58112 -0.36614,-1.1041 -0.74946,-1.56899c-0.38373,-0.47647 -0.88937,-0.85418 -1.51691,-1.13314c-0.61568,-0.29054 -1.35369,-0.43581 -2.21401,-0.43581c-1.15037,0 -2.12073,0.24406 -2.9111,0.73219c-0.79037,0.47647 -1.18555,1.11568 -1.18555,1.91762c0,0.63921 0.25568,1.17962 0.76705,1.62123c0.51137,0.44166 1.38887,0.79613 2.63251,1.06344l4.84652,0.97622c2.60305,0.53464 4.54379,1.39464 5.8222,2.5801c1.27841,1.18543 1.91782,2.74276 1.91782,4.672c0,1.75505 -0.51709,3.29487 -1.55169,4.61992c-1.02273,1.32464 -2.42878,2.35923 -4.21856,3.10296c-1.77832,0.73228 -3.82951,1.098 -6.15397,1.098c-3.54478,0 -6.36875,-0.738 -8.4723,-2.21401c-2.0921,-1.48746 -3.31815,-3.5096 -3.67815,-6.06647l7.30434,-0.38352c0.2205,1.08086 0.75518,1.90621 1.60364,2.47566c0.84846,0.55759 1.93501,0.83659 3.26006,0.83659c1.30173,0 2.34737,-0.24996 3.13774,-0.74946c0.80223,-0.51137 1.20887,-1.16816 1.22032,-1.97007c-0.01145,-0.67406 -0.29618,-1.22613 -0.85418,-1.65613c-0.55759,-0.44162 -1.41791,-0.77867 -2.58014,-1.01111l-4.63706,-0.92393c-2.61492,-0.52298 -4.56138,-1.42949 -5.83979,-2.71952c-1.26696,-1.29007 -1.90023,-2.93454 -1.90023,-4.93353c0,-1.72003 0.46473,-3.20184 1.3946,-4.4454c0.94132,-1.24356 2.26023,-2.20235 3.95715,-2.87641c1.70837,-0.6741 3.7076,-1.01111 5.99688,-1.01111c3.38197,0 6.04352,0.71473 7.98425,2.14426c1.9526,1.42949 3.09151,3.37616 3.41674,5.84zM272.77605,186.55253c-1.70837,0 -3.23101,-0.29659 -4.56751,-0.88937c-1.3365,-0.60423 -2.39401,-1.49319 -3.17292,-2.66687c-0.76705,-1.18555 -1.15037,-2.66155 -1.15037,-4.4281c0,-1.48762 0.27327,-2.73699 0.81941,-3.7481c0.54614,-1.01111 1.28987,-1.82463 2.23119,-2.4406c0.94132,-0.61597 2.01069,-1.08082 3.20769,-1.39464c1.20887,-0.31377 2.47542,-0.5346 3.80047,-0.66244c1.55741,-0.1627 2.81251,-0.31377 3.76569,-0.45327c0.95278,-0.15108 1.64414,-0.37186 2.07451,-0.66244c0.42996,-0.29054 0.64473,-0.72053 0.64473,-1.29003v-0.1046c0,-1.10406 -0.34855,-1.95828 -1.04605,-2.56264c-0.68564,-0.60431 -1.66173,-0.90651 -2.92869,-0.90651c-1.3365,0 -2.39974,0.29639 -3.1901,0.88908c-0.79037,0.58112 -1.31319,1.31327 -1.56887,2.19654l-6.86866,-0.55784c0.34855,-1.62708 1.03419,-3.03334 2.05692,-4.21876c1.02273,-1.19704 2.34205,-2.11521 3.95756,-2.75442c1.62696,-0.65082 3.5096,-0.97622 5.64834,-0.97622c1.48746,0 2.9111,0.17431 4.27092,0.52298c1.37128,0.34867 2.58587,0.88908 3.64338,1.62127c1.06937,0.73215 1.91169,1.67356 2.52778,2.82413c0.61609,1.13895 0.92414,2.5045 0.92414,4.09673v18.06048h-7.04293v-3.71333h-0.20946c-0.42996,0.837 -1.00514,1.57501 -1.72555,2.21401c-0.72082,0.62755 -1.58646,1.12173 -2.59774,1.48173c-1.01087,0.34896 -2.17923,0.52323 -3.50388,0.52323zM274.90292,181.42702c1.09228,0 2.05692,-0.21477 2.89392,-0.64473c0.83659,-0.44182 1.49319,-1.03459 1.96978,-1.77828c0.47659,-0.74381 0.71468,-1.58642 0.71468,-2.52778v-2.84155c-0.23236,0.15108 -0.55187,0.29054 -0.95891,0.41838c-0.39518,0.11622 -0.84232,0.22664 -1.34223,0.33124c-0.49991,0.09295 -0.99941,0.18012 -1.49932,0.26149c-0.4995,0.06971 -0.95278,0.13365 -1.35982,0.19174c-0.87137,0.12784 -1.63269,0.33124 -2.28355,0.61016c-0.65087,0.27892 -1.1565,0.65663 -1.5165,1.13314c-0.36041,0.46489 -0.54041,1.04597 -0.54041,1.74331c0,1.01111 0.36614,1.78397 1.098,2.31865c0.74373,0.52282 1.68546,0.78423 2.82437,0.78423zM301.04351,170.56648v15.48042h-7.42666v-35.70258h7.21721v13.64998h0.31418c0.60423,-1.58061 1.58032,-2.81836 2.92869,-3.71325c1.34796,-0.90651 3.03915,-1.35974 5.07274,-1.35974c1.85973,0 3.48097,0.40676 4.8637,1.22028c1.3946,0.80194 2.47583,1.95832 3.24287,3.46914c0.7785,1.49924 1.16182,3.29483 1.15037,5.3868v17.04937h-7.42625v-15.72448c0.01145,-1.65032 -0.40705,-2.93454 -1.2555,-3.85267c-0.83659,-0.91813 -2.01028,-1.37721 -3.52147,-1.37721c-1.01087,0 -1.90596,0.21502 -2.68446,0.64502c-0.76705,0.43 -1.37128,1.05759 -1.8131,1.88277c-0.42996,0.81352 -0.65087,1.79559 -0.66232,2.94616zM324.2509,186.04689v-26.77693h7.42666v26.77693zM327.98182,155.81825c-1.10414,0 -2.0516,-0.3661 -2.84155,-1.09829c-0.77891,-0.74381 -1.16837,-1.63289 -1.16837,-2.66724c0,-1.02273 0.38946,-1.90019 1.16837,-2.63234c0.78996,-0.74381 1.73741,-1.11572 2.84155,-1.11572c1.10373,0 2.04546,0.37191 2.82396,1.11572c0.79037,0.73215 1.18555,1.60961 1.18555,2.63234c0,1.03435 -0.39518,1.92343 -1.18555,2.66724c-0.7785,0.73219 -1.72023,1.09829 -2.82396,1.09829z" fill-opacity="0.8" fill="url(#color-1)"/><path d="M197.81072,190.58414h3.13201v14.76578c0,1.33528 -0.26427,2.47787 -0.79323,3.42697c-0.522,0.94909 -1.25755,1.67441 -2.20664,2.17596c-0.94909,0.495 -2.06101,0.7425 -3.33533,0.7425c-1.17287,0 -2.2271,-0.21355 -3.16269,-0.64064c-0.92864,-0.42709 -1.6646,-1.04728 -2.20664,-1.86096c-0.5355,-0.82023 -0.80346,-1.81678 -0.80346,-2.98965h3.12178c0,0.576 0.13214,1.07428 0.39682,1.49482c0.27123,0.42014 0.64064,0.74905 1.10823,0.98632c0.47455,0.23073 1.017,0.34568 1.62737,0.34568c0.66437,0 1.22687,-0.13868 1.68791,-0.41686c0.46759,-0.28473 0.8235,-0.70159 1.06773,-1.25059c0.24423,-0.54941 0.36614,-1.22032 0.36614,-2.01355zM223.60725,200.99717c0,2.22383 -0.40664,4.13551 -1.22032,5.73547c-0.81328,1.59341 -1.92846,2.82028 -3.34556,3.68142c-1.41014,0.85418 -3.01337,1.28128 -4.81011,1.28128c-1.80328,0 -3.41347,-0.42709 -4.83015,-1.28128c-1.41014,-0.86114 -2.52205,-2.09169 -3.33574,-3.69165c-0.81328,-1.59996 -1.22032,-3.50838 -1.22032,-5.72525c0,-2.22342 0.40705,-4.13183 1.22032,-5.72525c0.81368,-1.59996 1.9256,-2.82683 3.33574,-3.68101c1.41669,-0.86114 3.02687,-1.2915 4.83015,-1.2915c1.79673,0 3.39997,0.43037 4.81011,1.2915c1.4171,0.85418 2.53228,2.08105 3.34556,3.68101c0.81368,1.59341 1.22032,3.50183 1.22032,5.72525zM220.4957,200.99717c0,-1.69487 -0.2745,-3.12178 -0.82391,-4.28115c-0.54205,-1.16591 -1.28782,-2.0471 -2.23692,-2.64396c-0.94255,-0.60341 -2.01028,-0.90491 -3.2036,-0.90491c-1.19987,0 -2.27087,0.3015 -3.21342,0.90491c-0.94214,0.59687 -1.68791,1.47805 -2.23733,2.64396c-0.54205,1.15937 -0.81328,2.58628 -0.81328,4.28115c0,1.69487 0.27123,3.12546 0.81328,4.29179c0.54941,1.15896 1.29519,2.04055 2.23733,2.64396c0.94255,0.59646 2.01355,0.89468 3.21342,0.89468c1.19332,0 2.26105,-0.29823 3.2036,-0.89468c0.94909,-0.60341 1.69487,-1.485 2.23692,-2.64396c0.54941,-1.16632 0.82391,-2.59692 0.82391,-4.29179zM227.52513,211.41061v-20.82648h13.05741v2.70492h-9.91517v6.34543h9.23362v2.6951h-9.23362v6.37611h10.03708v2.70492zM246.96601,190.58414l4.98315,8.14544h0.16241l4.98315,-8.14544h3.64051l-6.4882,10.41303l6.5287,10.41344h-3.66097l-5.0032,-8.03375h-0.16241l-5.00361,8.03375h-3.66056l6.64039,-10.41344l-6.59989,-10.41303zM270.99323,199.67539v2.64396h-9.23362v-2.64396zM282.03217,211.41061h-6.74225v-20.82648h6.9558c2.04055,0 3.7931,0.41686 5.25724,1.25059c1.46455,0.82718 2.58628,2.01723 3.36601,3.56974c0.78628,1.54555 1.17982,3.39956 1.17982,5.56243c0,2.16942 -0.39682,4.03365 -1.19005,5.59311c-0.78628,1.55905 -1.92519,2.75933 -3.41674,3.5996c-1.49155,0.83414 -3.29483,1.251 -5.40984,1.251zM278.43216,208.66479h3.42697c1.58646,0 2.90496,-0.29823 3.95592,-0.89468c1.05055,-0.60341 1.83723,-1.47478 2.35923,-2.61369c0.522,-1.14546 0.783,-2.5421 0.783,-4.18951c0,-1.63391 -0.261,-3.02033 -0.783,-4.15924c-0.51546,-1.13891 -1.28496,-2.00332 -2.30851,-2.59324c-1.02355,-0.58991 -2.29501,-0.88446 -3.81356,-0.88446h-3.62006zM294.03412,193.28905v-2.70492h16.11823v2.70492h-6.49802v18.12156h-3.13201v-18.12156zM315.53437,190.58414l5.79643,16.96219h0.234l5.79643,-16.96219h3.39628l-7.49457,20.82648h-3.63028l-7.49457,-20.82648z" fill-opacity="0.8" fill="url(#color-2)"/></g></g></g></svg>