<svg version="1.1" xmlns="http://www.w3.org/2000/svg" xmlns:xlink="http://www.w3.org/1999/xlink" width="183.9048" height="38.24902" viewBox="0,0,183.9048,38.24902"><defs><linearGradient x1="146.96722" y1="180.81377" x2="334.66108" y2="180.81377" gradientUnits="userSpaceOnUse" id="color-1"><stop offset="0" stop-color="#3ff21b"/><stop offset="1" stop-color="#1bf2d9" stop-opacity="0.8"/></linearGradient></defs><g transform="translate(-148.0476,-160.87549)"><g fill="url(#color-1)" stroke="none" stroke-miterlimit="10"><path d="M164.16621,171.83616v5.57614h-16.11861v-5.57614zM151.70697,165.42357h7.42328v24.95334c0,0.68539 0.10456,1.21976 0.31364,1.60313c0.20912,0.37175 0.49954,0.63313 0.87129,0.78419c0.38336,0.15102 0.82479,0.2265 1.32433,0.2265c0.34852,0 0.69704,-0.02903 1.04556,-0.0871c0.34848,-0.06972 0.61567,-0.12198 0.80157,-0.15686l1.16751,5.52392c-0.37175,0.11617 -0.89451,0.24977 -1.56829,0.40079c-0.67381,0.16262 -1.49281,0.26138 -2.45704,0.29622c-1.78902,0.06972 -3.3573,-0.16844 -4.70485,-0.71443c-1.33598,-0.54603 -2.3757,-1.39405 -3.1192,-2.54413c-0.74348,-1.15008 -1.10941,-2.60224 -1.09779,-4.35638zM193.95531,171.83616l-9.35766,26.7656h-8.36424l-9.35754,-26.7656h7.84151l5.55873,19.15066h0.2788l5.54135,-19.15066zM216.74355,199.10709c-1.70806,0 -3.22964,-0.29622 -4.56558,-0.8887c-1.33594,-0.60405 -2.39299,-1.49276 -3.17157,-2.66611c-0.76673,-1.18492 -1.14988,-2.66027 -1.14988,-4.42606c0,-1.487 0.27275,-2.73583 0.81866,-3.74651c0.54631,-1.01065 1.28973,-1.82386 2.23066,-2.43957c0.94092,-0.61567 2.00984,-1.08037 3.20633,-1.39405c1.20794,-0.31364 2.47437,-0.53438 3.79886,-0.66217c1.55676,-0.16262 2.81132,-0.31364 3.76369,-0.45304c0.95278,-0.15102 1.64386,-0.37175 2.07363,-0.66216c0.42978,-0.29046 0.64486,-0.72028 0.64486,-1.28953v-0.10452c0,-1.10363 -0.3484,-1.9575 -1.0456,-2.56155c-0.68535,-0.6041 -1.66103,-0.90616 -2.92745,-0.90616c-1.33594,0 -2.39873,0.29626 -3.18876,0.8887c-0.79003,0.58087 -1.31262,1.31276 -1.5682,2.19565l-6.86576,-0.55764c0.3484,-1.62635 1.03375,-3.03202 2.05605,-4.21698c1.0223,-1.19654 2.34107,-2.11427 3.95548,-2.75321c1.62668,-0.65055 3.50852,-0.97584 5.64594,-0.97584c1.48724,0 2.91028,0.17424 4.26953,0.52276c1.3707,0.34852 2.58478,0.88871 3.64183,1.62059c1.06892,0.73189 1.91088,1.67284 2.52671,2.82293c0.61583,1.13847 0.92334,2.50348 0.92334,4.095v18.05284h-7.03995v-3.71164h-0.20896c-0.42978,0.83644 -1.00472,1.57413 -1.72523,2.21307c-0.7201,0.62728 -1.58537,1.12101 -2.59623,1.48115c-1.01085,0.34852 -2.17831,0.52276 -3.50239,0.52276zM218.86911,193.98399c1.09223,0 2.05645,-0.21493 2.89269,-0.64475c0.83665,-0.44143 1.49296,-1.03391 1.96936,-1.77741c0.47598,-0.74349 0.71438,-1.5857 0.71438,-2.52671v-2.84036c-0.23227,0.15102 -0.55204,0.29042 -0.95851,0.41821c-0.39502,0.11617 -0.84238,0.22654 -1.34167,0.3311c-0.4997,0.09294 -0.99899,0.18004 -1.49868,0.26138c-0.4997,0.06972 -0.95237,0.1336 -1.35925,0.1917c-0.871,0.12778 -1.632,0.33106 -2.28259,0.60986c-0.65059,0.27884 -1.15601,0.6564 -1.51627,1.13267c-0.35985,0.4647 -0.54019,1.04552 -0.54019,1.74256c0,1.01068 0.36598,1.78322 1.09795,2.31759c0.74341,0.52276 1.68434,0.78414 2.82277,0.78414zM259.84525,179.46855l-6.79583,0.4182c-0.11614,-0.58087 -0.36599,-1.10363 -0.74914,-1.56829c-0.38357,-0.47631 -0.88899,-0.85387 -1.51627,-1.13267c-0.61542,-0.29046 -1.35312,-0.43567 -2.21307,-0.43567c-1.14988,0 -2.11984,0.24397 -2.90987,0.73189c-0.79003,0.47631 -1.18505,1.11524 -1.18505,1.91681c0,0.63894 0.25557,1.17911 0.76672,1.62059c0.51115,0.44143 1.38828,0.79575 2.63139,1.06294l4.84405,0.97584c2.60236,0.53438 4.54227,1.39405 5.82014,2.57897c1.27787,1.18492 1.91701,2.7416 1.91701,4.67002c0,1.75418 -0.51687,3.29343 -1.55103,4.6178c-1.0223,1.32432 -2.42775,2.35824 -4.21678,3.10173c-1.77757,0.73189 -3.82789,1.09778 -6.15137,1.09778c-3.54328,0 -6.36606,-0.73765 -8.46872,-2.21303c-2.09121,-1.487 -3.31674,-3.50832 -3.677,-6.06406l7.30166,-0.38336c0.2204,1.08037 0.75487,1.90519 1.60297,2.47441c0.8481,0.5576 1.93418,0.83644 3.25867,0.83644c1.30118,0 2.34638,-0.24977 3.13641,-0.7493c0.80148,-0.51115 1.20836,-1.16751 1.21981,-1.96911c-0.01145,-0.67378 -0.29606,-1.22557 -0.85383,-1.65543c-0.55736,-0.44143 -1.41731,-0.77833 -2.57905,-1.01068l-4.6351,-0.92355c-2.61381,-0.52276 -4.55945,-1.42888 -5.83732,-2.71837c-1.26642,-1.28949 -1.89943,-2.9333 -1.89943,-4.93144c0,-1.7193 0.46453,-3.20049 1.39401,-4.44352c0.94092,-1.24299 2.25928,-2.20141 3.95547,-2.87519c1.70765,-0.67378 3.70604,-1.01068 5.99435,-1.01068c3.38054,0 6.04097,0.71446 7.98087,2.14335c1.95177,1.42889 3.0902,3.37472 3.41529,5.83756zM272.76219,199.10709c-1.70765,0 -3.22964,-0.29622 -4.56558,-0.8887c-1.33594,-0.60405 -2.39299,-1.49276 -3.17157,-2.66611c-0.76673,-1.18492 -1.14988,-2.66027 -1.14988,-4.42606c0,-1.487 0.27275,-2.73583 0.81906,-3.74651c0.54591,-1.01065 1.28932,-1.82386 2.23024,-2.43957c0.94092,-0.61567 2.00984,-1.08037 3.20633,-1.39405c1.20835,-0.31364 2.47437,-0.53438 3.79886,-0.66217c1.55676,-0.16262 2.81132,-0.31364 3.76369,-0.45304c0.95278,-0.15102 1.64386,-0.37175 2.07363,-0.66216c0.43018,-0.29046 0.64486,-0.72028 0.64486,-1.28953v-0.10452c0,-1.10363 -0.3484,-1.9575 -1.04561,-2.56155c-0.68535,-0.6041 -1.66103,-0.90616 -2.92745,-0.90616c-1.33594,0 -2.39872,0.29626 -3.18875,0.8887c-0.79003,0.58087 -1.31263,1.31276 -1.5682,2.19565l-6.86575,-0.55764c0.3484,-1.62635 1.03375,-3.03202 2.05604,-4.21698c1.0223,-1.19654 2.34106,-2.11427 3.95588,-2.75321c1.62627,-0.65055 3.50812,-0.97584 5.64595,-0.97584c1.48683,0 2.90987,0.17424 4.26911,0.52276c1.3707,0.34852 2.58477,0.88871 3.64183,1.62059c1.06892,0.73189 1.91089,1.67284 2.52672,2.82293c0.61583,1.13847 0.92374,2.50348 0.92374,4.095v18.05284h-7.03995v-3.71164h-0.20936c-0.42978,0.83644 -1.00471,1.57413 -1.72482,2.21307c-0.72051,0.62728 -1.58579,1.12101 -2.59664,1.48115c-1.01044,0.34852 -2.17831,0.52276 -3.50239,0.52276zM274.88816,193.98399c1.09181,0 2.05604,-0.21493 2.8927,-0.64475c0.83624,-0.44143 1.49256,-1.03391 1.96895,-1.77741c0.47639,-0.74349 0.71438,-1.5857 0.71438,-2.52671v-2.84036c-0.23226,0.15102 -0.55163,0.29042 -0.95851,0.41821c-0.39502,0.11617 -0.84197,0.22654 -1.34167,0.3311c-0.4997,0.09294 -0.99898,0.18004 -1.49868,0.26138c-0.49929,0.06972 -0.95238,0.1336 -1.35925,0.1917c-0.871,0.12778 -1.63199,0.33106 -2.28258,0.60986c-0.65059,0.27884 -1.15602,0.6564 -1.51587,1.13267c-0.36026,0.4647 -0.54018,1.04552 -0.54018,1.74256c0,1.01068 0.36557,1.78322 1.09754,2.31759c0.74342,0.52276 1.68474,0.78414 2.82317,0.78414zM301.01768,183.12789v15.47387h-7.42352v-35.68747h7.21415v13.64419h0.31364c0.60438,-1.57994 1.58006,-2.81713 2.92786,-3.71164c1.34739,-0.90613 3.03786,-1.3592 5.0706,-1.3592c1.85895,0 3.4795,0.40659 4.86164,1.2198c1.394,0.80157 2.47436,1.95746 3.24109,3.46768c0.77858,1.4986 1.16174,3.29343 1.15029,5.38448v17.04216h-7.42311v-15.71783c0.01145,-1.64962 -0.40688,-2.9333 -1.25498,-3.85103c-0.83624,-0.91773 -2.00943,-1.37662 -3.51997,-1.37662c-1.01044,0 -1.90515,0.21493 -2.68332,0.64475c-0.76673,0.42986 -1.3707,1.05718 -1.81233,1.88197c-0.42978,0.81322 -0.65059,1.79483 -0.66204,2.94491zM324.21525,198.60175v-26.7656h7.42352v26.7656zM327.94459,168.3859c-1.10368,0 -2.05072,-0.36594 -2.84035,-1.09783c-0.77858,-0.74349 -1.16788,-1.6322 -1.16788,-2.6661c0,-1.0223 0.3893,-1.89938 1.16788,-2.63125c0.78963,-0.74349 1.73667,-1.11523 2.84035,-1.11523c1.10327,0 2.0446,0.37174 2.82277,1.11523c0.79003,0.73187 1.18505,1.60895 1.18505,2.63125c0,1.0339 -0.39502,1.92261 -1.18505,2.6661c-0.77817,0.73189 -1.7195,1.09783 -2.82277,1.09783z"/></g></g></svg>