<svg version="1.1" xmlns="http://www.w3.org/2000/svg" xmlns:xlink="http://www.w3.org/1999/xlink" width="186.0112" height="97.44123" viewBox="0,0,186.0112,97.44123"><defs><linearGradient x1="148.69931" y1="151.14449" x2="335.70434" y2="151.14449" gradientUnits="userSpaceOnUse" id="color-1"><stop offset="0" stop-color="#3ff21b"/><stop offset="1" stop-color="#1bf2d9" stop-opacity="0.8"/></linearGradient><linearGradient x1="145.03254" y1="200.44211" x2="294.55508" y2="200.44211" gradientUnits="userSpaceOnUse" id="color-2"><stop offset="0" stop-color="#3ff21b"/><stop offset="1" stop-color="#1bf2d9" stop-opacity="0.8"/></linearGradient><linearGradient x1="296.59218" y1="199.21986" x2="329.59306" y2="199.21986" gradientUnits="userSpaceOnUse" id="color-3"><stop offset="0" stop-color="#3ff21b"/><stop offset="1" stop-color="#1bf2d9" stop-opacity="0.8"/></linearGradient></defs><g transform="translate(-146.9944,-131.27938)"><g stroke="none" stroke-miterlimit="10"><g><path d="M165.8352,142.19983v5.55568h-16.05949v-5.55568zM153.42165,135.81073h7.39603v24.86181c0,0.68287 0.10418,1.21529 0.31253,1.59724c0.20831,0.37042 0.4977,0.63077 0.86805,0.7811c0.38195,0.15074 0.8218,0.22571 1.31951,0.22571c0.34724,0 0.69444,-0.02893 1.04169,-0.08678c0.34724,-0.06926 0.61345,-0.12141 0.79862,-0.15604l1.16322,5.50341c-0.37034,0.11571 -0.89123,0.24893 -1.56253,0.39927c-0.6713,0.16215 -1.48732,0.26075 -2.44797,0.29538c-1.78246,0.06926 -3.34499,-0.16786 -4.68763,-0.71176c-1.33104,-0.54431 -2.36694,-1.38889 -3.10771,-2.53496c-0.74077,-1.14566 -1.10537,-2.59281 -1.0938,-4.34035zM195.51494,142.19983l-9.32336,26.66737h-8.3335l-9.32316,-26.66737h7.8127l5.53836,19.08034h0.27778l5.52101,-19.08034zM218.21955,169.37076c-1.70138,0 -3.21779,-0.29538 -4.54883,-0.88573c-1.33104,-0.60176 -2.38421,-1.48708 -3.15994,-2.65596c-0.76391,-1.1807 -1.14566,-2.65066 -1.14566,-4.40998c0,-1.48154 0.27175,-2.72579 0.81606,-3.73277c0.5439,-1.00698 1.28459,-1.81717 2.22206,-2.43062c0.93747,-0.61345 2.00246,-1.0764 3.19457,-1.38893c1.20392,-0.31249 2.46529,-0.53241 3.78492,-0.65973c1.55104,-0.16203 2.801,-0.31249 3.74988,-0.45142c0.94928,-0.15046 1.63782,-0.37034 2.06602,-0.65973c0.4282,-0.28935 0.6425,-0.71759 0.6425,-1.28475v-0.10418c0,-1.09954 -0.34712,-1.95027 -1.04177,-2.55215c-0.68283,-0.60184 -1.65493,-0.9028 -2.91671,-0.9028c-1.33104,0 -2.38992,0.29517 -3.17705,0.88544c-0.78713,0.57874 -1.30781,1.30789 -1.56245,2.18755l-6.84055,-0.55556c0.34712,-1.62043 1.02995,-3.02093 2.0485,-4.2015c1.01855,-1.19215 2.33247,-2.10656 3.94137,-2.74315c1.6203,-0.64816 3.49524,-0.97222 5.62482,-0.97222c1.48178,0 2.8996,0.1736 4.25386,0.52084c1.36567,0.34724 2.57529,0.88544 3.62847,1.61464c1.06499,0.72916 1.90387,1.66671 2.51744,2.81257c0.61357,1.13429 0.91995,2.49426 0.91995,4.07997v17.98658h-7.01371v-3.69814h-0.2086c-0.4282,0.83358 -1.00103,1.56856 -1.7189,2.20495c-0.71746,0.62498 -1.57956,1.11714 -2.5867,1.47567c-1.00714,0.34753 -2.17032,0.52109 -3.48954,0.52109zM220.33772,164.26622c1.08781,0 2.0485,-0.21389 2.88167,-0.64209c0.83358,-0.44001 1.48748,-1.03036 1.96213,-1.77101c0.47423,-0.74077 0.71176,-1.57993 0.71176,-2.51744v-2.82993c-0.23141,0.15046 -0.55001,0.28935 -0.95499,0.41667c-0.39357,0.11575 -0.83928,0.22571 -1.33674,0.32989c-0.49787,0.09257 -0.99532,0.17939 -1.49319,0.26042c-0.49746,0.06942 -0.94888,0.1331 -1.35426,0.19096c-0.8678,0.12732 -1.62601,0.32989 -2.27421,0.60766c-0.6482,0.27778 -1.15177,0.65395 -1.51071,1.12851c-0.35853,0.46299 -0.5382,1.04169 -0.5382,1.73617c0,1.00698 0.36464,1.77667 1.09392,2.30917c0.74069,0.52068 1.67816,0.78102 2.81282,0.78102zM261.16307,149.80417l-6.77089,0.41671c-0.11571,-0.57874 -0.36464,-1.09958 -0.74639,-1.56257c-0.38216,-0.47452 -0.88573,-0.85069 -1.51071,-1.12851c-0.61316,-0.28935 -1.34815,-0.43402 -2.20495,-0.43402c-1.14566,0 -2.11206,0.24307 -2.89919,0.7292c-0.78713,0.47452 -1.1807,1.11111 -1.1807,1.90977c0,0.63659 0.25464,1.17479 0.76391,1.6146c0.50927,0.43985 1.38319,0.79288 2.62174,1.05908l4.82669,0.97222c2.5924,0.53246 4.5252,1.38893 5.79838,2.56955c1.27318,1.18058 1.90998,2.73154 1.90998,4.65288c0,1.74787 -0.51498,3.28139 -1.54534,4.60102c-1.01855,1.31922 -2.41884,2.34958 -4.2013,3.09027c-1.77105,0.72928 -3.81384,1.09351 -6.12879,1.09351c-3.53028,0 -6.34269,-0.73498 -8.43763,-2.20495c-2.08354,-1.48137 -3.30457,-3.49524 -3.6631,-6.04165l7.27445,-0.38195c0.2196,1.07644 0.75209,1.89841 1.59708,2.46553c0.84499,0.55531 1.92709,0.83317 3.24672,0.83317c1.29641,0 2.33777,-0.24893 3.1249,-0.74639c0.79895,-0.50927 1.20392,-1.16338 1.21533,-1.962c-0.01141,-0.6713 -0.29497,-1.22111 -0.85069,-1.64935c-0.55531,-0.43981 -1.41211,-0.77548 -2.56959,-1.00698l-4.61809,-0.92015c-2.60422,-0.52084 -4.54271,-1.42364 -5.8159,-2.7084c-1.26177,-1.28479 -1.89246,-2.92253 -1.89246,-4.91334c0,-1.71299 0.46283,-3.18874 1.38889,-4.42721c0.93747,-1.23847 2.25099,-2.19334 3.94096,-2.86464c1.70138,-0.67134 3.69243,-1.00698 5.97235,-1.00698c3.36813,0 6.01879,0.7118 7.95158,2.13548c1.94461,1.42364 3.07886,3.36234 3.40276,5.8161zM274.03261,169.37076c-1.70138,0 -3.21779,-0.29538 -4.54883,-0.88573c-1.33104,-0.60176 -2.38421,-1.48708 -3.15994,-2.65596c-0.76391,-1.1807 -1.14566,-2.65066 -1.14566,-4.40998c0,-1.48154 0.27216,-2.72579 0.81606,-3.73277c0.5439,-1.00698 1.28459,-1.81717 2.22206,-2.43062c0.93747,-0.61345 2.00246,-1.0764 3.19457,-1.38893c1.20392,-0.31249 2.46529,-0.53241 3.78492,-0.65973c1.55104,-0.16203 2.801,-0.31249 3.75029,-0.45142c0.94888,-0.15046 1.63741,-0.37034 2.06602,-0.65973c0.4282,-0.28935 0.64209,-0.71759 0.64209,-1.28475v-0.10418c0,-1.09954 -0.34712,-1.95027 -1.04177,-2.55215c-0.68283,-0.60184 -1.65493,-0.9028 -2.91671,-0.9028c-1.33104,0 -2.38992,0.29517 -3.17705,0.88544c-0.78713,0.57874 -1.30781,1.30789 -1.56245,2.18755l-6.84055,-0.55556c0.34712,-1.62043 1.02995,-3.02093 2.0485,-4.2015c1.01855,-1.19215 2.33247,-2.10656 3.94137,-2.74315c1.6203,-0.64816 3.49524,-0.97222 5.62523,-0.97222c1.48137,0 2.89919,0.1736 4.25345,0.52084c1.36567,0.34724 2.57529,0.88544 3.62847,1.61464c1.06499,0.72916 1.90387,1.66671 2.51744,2.81257c0.61357,1.13429 0.92036,2.49426 0.92036,4.07997v17.98658h-7.01411v-3.69814h-0.2086c-0.4282,0.83358 -1.00103,1.56856 -1.71849,2.20495c-0.71787,0.62498 -1.57997,1.11714 -2.58711,1.47567c-1.00673,0.34753 -2.17032,0.52109 -3.48954,0.52109zM276.15077,164.26622c1.08781,0 2.0485,-0.21389 2.88208,-0.64209c0.83317,-0.44001 1.48708,-1.03036 1.96172,-1.77101c0.47464,-0.74077 0.71176,-1.57993 0.71176,-2.51744v-2.82993c-0.23141,0.15046 -0.54961,0.28935 -0.95499,0.41667c-0.39357,0.11575 -0.83887,0.22571 -1.33674,0.32989c-0.49787,0.09257 -0.99532,0.17939 -1.49319,0.26042c-0.49746,0.06942 -0.94888,0.1331 -1.35426,0.19096c-0.8678,0.12732 -1.62601,0.32989 -2.27421,0.60766c-0.6482,0.27778 -1.15177,0.65395 -1.5103,1.12851c-0.35894,0.46299 -0.5382,1.04169 -0.5382,1.73617c0,1.00698 0.36464,1.77667 1.09351,2.30917c0.74069,0.52068 1.67856,0.78102 2.81282,0.78102zM302.1844,153.45011v15.41708h-7.39627v-35.5565h7.18767v13.59412h0.3129c0.60176,-1.57414 1.57386,-2.80683 2.91671,-3.69806c1.34244,-0.9028 3.02671,-1.35418 5.05199,-1.35418c1.85212,0 3.46672,0.4051 4.8438,1.21529c1.38889,0.79866 2.4657,1.95031 3.22961,3.45495c0.77532,1.49311 1.15707,3.28135 1.14566,5.36476v16.97961h-7.39587v-15.66014c0.01141,-1.64357 -0.40538,-2.92253 -1.25037,-3.8369c-0.83317,-0.91437 -2.00205,-1.37157 -3.50706,-1.37157c-1.00673,0 -1.89816,0.21414 -2.67348,0.64238c-0.76391,0.42824 -1.36567,1.05326 -1.80568,1.87506c-0.4282,0.81019 -0.6482,1.78824 -0.65961,2.9341zM325.29684,168.86719v-26.66737h7.39627v26.66737zM329.01249,138.76223c-1.09962,0 -2.0432,-0.3646 -2.82993,-1.0938c-0.77572,-0.74077 -1.16359,-1.62621 -1.16359,-2.65633c0,-1.01855 0.38786,-1.89242 1.16359,-2.62157c0.78672,-0.74077 1.73031,-1.11115 2.82993,-1.11115c1.09921,0 2.03709,0.37038 2.81241,1.11115c0.78713,0.72916 1.1807,1.60303 1.1807,2.62157c0,1.03012 -0.39357,1.91556 -1.1807,2.65633c-0.77532,0.7292 -1.71319,1.0938 -2.81241,1.0938z" fill-opacity="0.8" fill="url(#color-1)"/><path d="M157.81065,218.59871c-2.02552,0 -3.86004,-0.52068 -5.50361,-1.56245c-1.632,-1.05318 -2.92832,-2.59851 -3.88899,-4.63561c-0.9491,-2.0485 -1.42365,-4.56023 -1.42365,-7.5348c0,-3.05564 0.49191,-5.5963 1.47573,-7.62158c0.98383,-2.03709 2.29173,-3.55921 3.92372,-4.56635c1.64357,-1.01855 3.44338,-1.52782 5.39943,-1.52782c1.49311,0 2.73736,0.25464 3.73277,0.76391c1.00693,0.49787 1.81717,1.12285 2.43062,1.87494c0.62502,0.74109 1.09954,1.46997 1.42364,2.18784h0.22571v-13.36862h7.37867v35.55662h-7.29189v-4.27097h-0.31249c-0.34724,0.74069 -0.83916,1.47567 -1.47575,2.20495c-0.62502,0.71746 -1.441,1.31352 -2.44797,1.78816c-0.9954,0.47464 -2.21069,0.71176 -3.64595,0.71176zM160.15449,212.71315c1.19215,0 2.19912,-0.3239 3.02088,-0.9721c0.83337,-0.65961 1.46997,-1.57997 1.90981,-2.76067c0.45138,-1.18029 0.67709,-2.56348 0.67709,-4.14915c0,-1.58567 -0.21992,-2.96315 -0.65973,-4.13204c-0.43985,-1.16929 -1.07644,-2.07213 -1.90977,-2.70852c-0.83337,-0.63679 -1.84613,-0.95499 -3.03828,-0.95499c-1.21533,0 -2.23966,0.33001 -3.07299,0.98962c-0.83337,0.65961 -1.46418,1.57426 -1.89242,2.74315c-0.42828,1.16888 -0.64238,2.52314 -0.64238,4.06278c0,1.55104 0.2141,2.92241 0.64238,4.11452c0.43981,1.1807 1.07061,2.10676 1.89242,2.77778c0.83333,0.66002 1.85766,0.98962 3.07299,0.98962zM179.06558,218.16481v-26.66757h7.39611v26.66757zM182.78095,188.05986c-1.09958,0 -2.04288,-0.36464 -2.82993,-1.09392c-0.77548,-0.74069 -1.16322,-1.62601 -1.16322,-2.65637c0,-1.01855 0.38774,-1.89205 1.16322,-2.62133c0.78705,-0.74069 1.73035,-1.11144 2.82993,-1.11144c1.09958,0 2.03709,0.37075 2.81257,1.11144c0.78709,0.72928 1.18066,1.60278 1.18066,2.62133c0,1.03036 -0.39357,1.91568 -1.18066,2.65637c-0.77548,0.72928 -1.71299,1.09392 -2.81257,1.09392zM204.40032,228.72062c-2.39562,0 -4.45023,-0.33001 -6.16343,-0.98962c-1.70138,-0.6482 -3.05564,-1.53352 -4.06237,-2.65637c-1.00714,-1.12244 -1.66104,-2.38421 -1.96172,-3.78492l6.84015,-0.91995c0.2086,0.5325 0.5382,1.02995 0.98962,1.49319c0.45142,0.46283 1.04747,0.83317 1.78857,1.11103c0.75209,0.28927 1.66634,0.4339 2.74274,0.4339c1.6089,0 2.93423,-0.39357 3.976,-1.18029c1.05318,-0.77572 1.57997,-2.07783 1.57997,-3.90633v-4.87883h-0.31249c-0.32431,0.74069 -0.81036,1.44104 -1.45856,2.10065c-0.6482,0.66002 -1.48137,1.19822 -2.49992,1.6146c-1.01855,0.41679 -2.23387,0.62498 -3.64599,0.62498c-2.00246,0 -3.82525,-0.46283 -5.46878,-1.38889c-1.63212,-0.93747 -2.93423,-2.36669 -3.90633,-4.28808c-0.96069,-1.93279 -1.44104,-4.37527 -1.44104,-7.3266c0,-3.02101 0.49175,-5.54415 1.47567,-7.56983c0.98392,-2.02528 2.29173,-3.54169 3.92385,-4.54842c1.64353,-1.00714 3.44309,-1.51071 5.39911,-1.51071c1.49319,0 2.74315,0.25464 3.75029,0.76391c1.00714,0.49787 1.81709,1.12285 2.43066,1.87494c0.62498,0.74109 1.10533,1.46997 1.44104,2.18784h0.27786v-4.47956h7.34372v26.92791c0,2.26851 -0.55531,4.16667 -1.66675,5.69449c-1.11103,1.52782 -2.65026,2.67389 -4.61809,3.4378c-1.95602,0.77532 -4.20741,1.16318 -6.75377,1.16318zM204.55677,212.2271c1.19211,0 2.19924,-0.29497 3.02101,-0.88532c0.83317,-0.60176 1.46997,-1.45856 1.90957,-2.56959c0.45142,-1.12285 0.67713,-2.46529 0.67713,-4.02774c0,-1.56286 -0.22001,-2.91671 -0.65961,-4.06278c-0.44001,-1.15748 -1.0764,-2.05461 -1.90998,-2.691c-0.83317,-0.63679 -1.84601,-0.95499 -3.03812,-0.95499c-1.21533,0 -2.23958,0.33001 -3.07316,0.98962c-0.83317,0.6482 -1.46426,1.55104 -1.89246,2.70852c-0.4282,1.15748 -0.64209,2.49422 -0.64209,4.01063c0,1.53923 0.21389,2.87026 0.64209,3.99311c0.44001,1.11103 1.0707,1.97353 1.89246,2.5867c0.83358,0.60176 1.85783,0.90284 3.07316,0.90284zM223.3245,218.16481v-26.66757h7.39627v26.66757zM227.04016,188.05986c-1.09962,0 -2.0432,-0.36464 -2.83034,-1.09392c-0.77532,-0.74069 -1.16318,-1.62601 -1.16318,-2.65637c0,-1.01855 0.38786,-1.89205 1.16318,-2.62133c0.78713,-0.74069 1.73071,-1.11144 2.83034,-1.11144c1.09921,0 2.03709,0.37075 2.81241,1.11144c0.78713,0.72928 1.1807,1.60278 1.1807,2.62133c0,1.03036 -0.39357,1.91568 -1.1807,2.65637c-0.77532,0.72928 -1.71319,1.09392 -2.81241,1.09392zM250.82972,191.49724v5.55596h-16.05962v-5.55596zM238.41609,185.10852h7.39627v24.86148c0,0.68283 0.10389,1.21533 0.31249,1.59749c0.20819,0.37034 0.49746,0.63068 0.8678,0.78102c0.38216,0.15074 0.82176,0.22571 1.31963,0.22571c0.34712,0 0.69424,-0.02893 1.04177,-0.08678c0.34712,-0.06926 0.61316,-0.12141 0.79854,-0.15604l1.16318,5.50341c-0.37034,0.11571 -0.89102,0.24893 -1.56245,0.39927c-0.67143,0.16215 -1.48748,0.26075 -2.44818,0.29538c-1.78246,0.06926 -3.3449,-0.16786 -4.68735,-0.71176c-1.33104,-0.54431 -2.3671,-1.38889 -3.10779,-2.53496c-0.74069,-1.14566 -1.10533,-2.59281 -1.09392,-4.34023zM263.25191,218.66838c-1.70138,0 -3.21779,-0.29538 -4.54883,-0.88573c-1.33104,-0.60176 -2.38421,-1.48708 -3.15994,-2.65596c-0.76391,-1.1807 -1.14566,-2.65066 -1.14566,-4.4099c0,-1.48178 0.27216,-2.72604 0.81606,-3.73277c0.5439,-1.00714 1.28459,-1.81709 2.22206,-2.43066c0.93747,-0.61357 2.00246,-1.0764 3.19457,-1.38889c1.20392,-0.31249 2.46529,-0.5325 3.78492,-0.66002c1.55104,-0.16175 2.801,-0.31249 3.75029,-0.45101c0.94888,-0.15074 1.63741,-0.37075 2.06602,-0.66002c0.4282,-0.28927 0.64209,-0.71746 0.64209,-1.28459v-0.1043c0,-1.09962 -0.34712,-1.95031 -1.04177,-2.55207c-0.68283,-0.60176 -1.65493,-0.90284 -2.91671,-0.90284c-1.33104,0 -2.38992,0.29497 -3.17705,0.88532c-0.78713,0.57894 -1.30781,1.30822 -1.56245,2.18784l-6.84055,-0.55572c0.34712,-1.6203 1.02995,-3.02101 2.0485,-4.20171c1.01855,-1.19211 2.33247,-2.10635 3.94137,-2.74274c1.6203,-0.6482 3.49524,-0.97251 5.62523,-0.97251c1.48137,0 2.89919,0.17356 4.25345,0.52109c1.36567,0.34712 2.57529,0.88532 3.62847,1.6146c1.06499,0.72887 1.90387,1.66675 2.51744,2.81241c0.61357,1.13425 0.92036,2.49422 0.92036,4.07989v17.98671h-7.01411v-3.69814h-0.2086c-0.4282,0.83358 -1.00103,1.56856 -1.71849,2.20495c-0.71787,0.62498 -1.57997,1.11714 -2.58711,1.47567c-1.00673,0.34753 -2.16991,0.52109 -3.48954,0.52109zM265.37008,213.56384c1.08781,0 2.0485,-0.21389 2.88208,-0.64209c0.83317,-0.44001 1.48708,-1.03036 1.96172,-1.77105c0.47464,-0.74069 0.71176,-1.57997 0.71176,-2.51744v-2.82993c-0.23141,0.15034 -0.54961,0.28927 -0.95499,0.41679c-0.39357,0.11571 -0.83887,0.22571 -1.33674,0.3296c-0.49746,0.09289 -0.99532,0.17967 -1.49319,0.26075c-0.49746,0.06926 -0.94888,0.13282 -1.35426,0.19067c-0.8678,0.12752 -1.62601,0.33001 -2.27421,0.60787c-0.6482,0.27786 -1.15177,0.65391 -1.5103,1.12855c-0.35894,0.46283 -0.5382,1.04177 -0.5382,1.73601c0,1.00714 0.36464,1.77675 1.09351,2.30925c0.74109,0.52068 1.67856,0.78102 2.81282,0.78102zM291.4037,182.60819v35.55662h-7.39587v-35.55662z" fill-opacity="0.8" fill="url(#color-2)"/><path d="M313.12195,218.26382c-2.55614,0 -4.83483,-0.47016 -6.83607,-1.41048c-1.98942,-0.94073 -3.56898,-2.23673 -4.73828,-3.8884c-1.1697,-1.65167 -1.77838,-3.54454 -1.82686,-5.6786h7.59591c0.08434,1.43452 0.68731,2.59811 1.80853,3.49035c1.12122,0.89225 2.45347,1.33837 3.99677,1.33837c1.22959,0 2.31495,-0.27134 3.25527,-0.81402c0.95254,-0.5545 1.69405,-1.32004 2.2245,-2.29662c0.54227,-0.9888 0.81361,-2.12224 0.81361,-3.40031c0,-1.30211 -0.27704,-2.44736 -0.83195,-3.43576c-0.54227,-0.9888 -1.296,-1.76045 -2.26036,-2.31495c-0.96477,-0.5549 -2.06806,-0.83806 -3.30987,-0.85028c-1.08496,0 -2.13976,0.22327 -3.16483,0.66939c-1.01284,0.44612 -1.80242,1.05481 -2.36914,1.82646l-6.96278,-1.24792l1.75434,-19.53164h22.64228v6.40217h-16.18592l-0.95825,9.27732h0.21675c0.65105,-0.91628 1.63375,-1.67571 2.94808,-2.27869c1.31392,-0.60257 2.78511,-0.90406 4.41275,-0.90406c2.23021,0 4.21963,0.52435 5.96786,1.57345c1.74823,1.04869 3.12857,2.48973 4.14141,4.3223c1.01284,1.82035 1.51315,3.91814 1.50093,6.29339c0.01222,2.49584 -0.56631,4.71424 -1.73601,6.65518c-1.15748,1.92913 -2.779,3.44839 -4.86498,4.55738c-2.07376,1.09718 -4.48486,1.64597 -7.23371,1.64597z" fill-opacity="0.8" fill="url(#color-3)"/></g></g></g></svg>