<svg version="1.1" xmlns="http://www.w3.org/2000/svg" xmlns:xlink="http://www.w3.org/1999/xlink" width="183.50319" height="53.63614" viewBox="0,0,183.50319,53.63614"><defs><linearGradient x1="147.17039" y1="188.54748" x2="334.45436" y2="188.54748" gradientUnits="userSpaceOnUse" id="color-1"><stop offset="0" stop-color="#3ff21b"/><stop offset="1" stop-color="#1bf2d9" stop-opacity="0.8"/></linearGradient><linearGradient x1="178.99642" y1="160.18966" x2="332.41423" y2="160.18966" gradientUnits="userSpaceOnUse" id="color-2"><stop offset="0" stop-color="#3ff21b"/><stop offset="1" stop-color="#1bf2d9" stop-opacity="0.8"/></linearGradient></defs><g transform="translate(-148.2484,-153.18193)"><g stroke="none" stroke-miterlimit="10"><g><path d="M164.33183,179.58947v5.56397h-16.08343v-5.56397zM151.89977,173.19083h7.40706v24.89873c0,0.68386 0.10434,1.21714 0.313,1.59987c0.20863,0.37089 0.49844,0.63163 0.86934,0.78219c0.38252,0.15097 0.82303,0.22605 1.32147,0.22605c0.34776,0 0.69548,-0.02897 1.04324,-0.08691c0.34776,-0.06936 0.61437,-0.12159 0.79981,-0.15627l1.16496,5.51162c-0.37089,0.11588 -0.89256,0.2493 -1.56487,0.39986c-0.6723,0.1624 -1.48954,0.26114 -2.45163,0.29582c-1.78511,0.06936 -3.34998,-0.16811 -4.69463,-0.71283c-1.33302,-0.54512 -2.37046,-1.39096 -3.11234,-2.53873c-0.74187,-1.14737 -1.10701,-2.59667 -1.09542,-4.3467zM194.05585,179.58947l-9.33723,26.70714h-8.34597l-9.33706,-26.70714h7.82435l5.54663,19.10888h0.2782l5.5292,-19.10888zM216.79432,206.80093c-1.70391,0 -3.22259,-0.29582 -4.55561,-0.88705c-1.33302,-0.60266 -2.38777,-1.48929 -3.16465,-2.65992c-0.76504,-1.18246 -1.14737,-2.65461 -1.14737,-4.41648c0,-1.484 0.27216,-2.7301 0.81727,-3.73833c0.54472,-1.00864 1.2865,-1.81979 2.22538,-2.43428c0.93887,-0.61449 2.00545,-1.07801 3.19933,-1.39096c1.20571,-0.31295 2.46897,-0.53329 3.79056,-0.661c1.55336,-0.16199 2.80518,-0.31295 3.75547,-0.45169c0.9507,-0.15097 1.64027,-0.3711 2.0691,-0.66092c0.42883,-0.28978 0.64345,-0.71866 0.64345,-1.28667v-0.10434c0,-1.10118 -0.34763,-1.95317 -1.04333,-2.55595c-0.68386,-0.60274 -1.6574,-0.90415 -2.92106,-0.90415c-1.33302,0 -2.39348,0.29561 -3.18178,0.88676c-0.7883,0.5796 -1.30976,1.30984 -1.56478,2.19082l-6.85076,-0.55638c0.34763,-1.62284 1.03149,-3.02543 2.05156,-4.20777c1.02007,-1.19393 2.33595,-2.1097 3.94724,-2.74724c1.62272,-0.64913 3.50046,-0.97367 5.63321,-0.97367c1.484,0 2.90392,0.17386 4.2602,0.52163c1.3677,0.34776 2.57914,0.88676 3.63389,1.61705c1.06658,0.73024 1.9067,1.66919 2.5212,2.81677c0.61449,1.13599 0.92132,2.49797 0.92132,4.08605v18.01341h-7.02417v-3.70365h-0.20891c-0.42883,0.83482 -1.00252,1.5709 -1.72146,2.20823c-0.71854,0.62591 -1.58192,1.1188 -2.59056,1.47787c-1.00864,0.34805 -2.17355,0.52187 -3.49474,0.52187zM218.91565,201.68877c1.08943,0 2.05156,-0.21422 2.88596,-0.64305c0.83482,-0.44067 1.48971,-1.0319 1.96506,-1.77369c0.47494,-0.7418 0.71283,-1.58233 0.71283,-2.5212v-2.83415c-0.23176,0.15056 -0.55084,0.28969 -0.95641,0.41741c-0.39415,0.11588 -0.84053,0.22605 -1.33873,0.3301c-0.49861,0.09303 -0.99681,0.17994 -1.49542,0.26114c-0.4982,0.06936 -0.95029,0.13302 -1.35628,0.19096c-0.8691,0.12772 -1.62843,0.3305 -2.2776,0.60877c-0.64917,0.27827 -1.15349,0.65488 -1.51297,1.13024c-0.35907,0.46352 -0.539,1.04333 -0.539,1.7386c0,1.00864 0.36518,1.7794 1.09554,2.31269c0.7418,0.52146 1.68066,0.78219 2.81701,0.78219zM259.8019,187.20514l-6.78099,0.41733c-0.11588,-0.5796 -0.36518,-1.10122 -0.74751,-1.5649c-0.38273,-0.47523 -0.88705,-0.85196 -1.51297,-1.13019c-0.61408,-0.28978 -1.35015,-0.43467 -2.20823,-0.43467c-1.14737,0 -2.11521,0.24343 -2.90351,0.73029c-0.7883,0.47523 -1.18246,1.11276 -1.18246,1.91262c0,0.63754 0.25501,1.17655 0.76504,1.61701c0.51003,0.4405 1.38525,0.79406 2.62564,1.06067l4.83389,0.97384c2.59627,0.53288 4.53195,1.39096 5.80702,2.57301c1.27508,1.18246 1.91283,2.73581 1.91283,4.66007c0,1.75043 -0.51574,3.28624 -1.54765,4.60784c-1.02007,1.32119 -2.42245,2.35309 -4.20756,3.09488c-1.77369,0.73036 -3.81953,1.09514 -6.13794,1.09514c-3.53554,0 -6.35215,-0.73607 -8.45022,-2.20823c-2.08664,-1.48358 -3.3095,-3.50046 -3.66857,-6.05062l7.28531,-0.38273c0.21993,1.07801 0.75322,1.90141 1.59946,2.46937c0.84624,0.55614 1.92996,0.83441 3.25156,0.83441c1.29834,0 2.34125,-0.2493 3.12956,-0.74751c0.80014,-0.51003 1.20571,-1.16492 1.21714,-1.96506c-0.01142,-0.67202 -0.29541,-1.22286 -0.85196,-1.65169c-0.55614,-0.44067 -1.41422,-0.77648 -2.57343,-1.00864l-4.62497,-0.92132c-2.60811,-0.52187 -4.54949,-1.42564 -5.82457,-2.71256c-1.26366,-1.2865 -1.89528,-2.92681 -1.89528,-4.92059c0,-1.71554 0.46352,-3.1935 1.39096,-4.43382c0.93887,-1.24032 2.25435,-2.1966 3.94684,-2.86891c1.70391,-0.67235 3.69794,-1.00847 5.98126,-1.00847c3.37315,0 6.02777,0.71286 7.96344,2.13866c1.94751,1.42576 3.08345,3.36736 3.40783,5.82478zM272.69063,206.80093c-1.70391,0 -3.22259,-0.29582 -4.55561,-0.88705c-1.33302,-0.60266 -2.38777,-1.48929 -3.16465,-2.65992c-0.76504,-1.18246 -1.14737,-2.65461 -1.14737,-4.41648c0,-1.484 0.27256,-2.7301 0.81727,-3.73833c0.54472,-1.00864 1.2865,-1.81979 2.22538,-2.43428c0.93887,-0.61449 2.00545,-1.07801 3.19933,-1.39096c1.20571,-0.31295 2.46897,-0.53329 3.79056,-0.661c1.55336,-0.16199 2.80518,-0.31295 3.75588,-0.45169c0.95029,-0.15097 1.63986,-0.3711 2.0691,-0.66092c0.42883,-0.28978 0.64305,-0.71866 0.64305,-1.28667v-0.10434c0,-1.10118 -0.34763,-1.95317 -1.04333,-2.55595c-0.68386,-0.60274 -1.6574,-0.90415 -2.92106,-0.90415c-1.33302,0 -2.39348,0.29561 -3.18178,0.88676c-0.7883,0.5796 -1.30976,1.30984 -1.56478,2.19082l-6.85076,-0.55638c0.34763,-1.62284 1.03149,-3.02543 2.05156,-4.20777c1.02007,-1.19393 2.33595,-2.1097 3.94724,-2.74724c1.62272,-0.64913 3.50046,-0.97367 5.63361,-0.97367c1.48358,0 2.90351,0.17386 4.25979,0.52163c1.3677,0.34776 2.57914,0.88676 3.63389,1.61705c1.06658,0.73024 1.9067,1.66919 2.5212,2.81677c0.61449,1.13599 0.92173,2.49797 0.92173,4.08605v18.01341h-7.02457v-3.70365h-0.20891c-0.42883,0.83482 -1.00252,1.5709 -1.72106,2.20823c-0.71894,0.62591 -1.58233,1.1188 -2.59096,1.47787c-1.00823,0.34805 -2.17355,0.52187 -3.49474,0.52187zM274.81196,201.68877c1.08943,0 2.05156,-0.21422 2.88638,-0.64305c0.83441,-0.44067 1.48929,-1.0319 1.96464,-1.77369c0.47535,-0.7418 0.71283,-1.58233 0.71283,-2.5212v-2.83415c-0.23176,0.15056 -0.55043,0.28969 -0.95641,0.41741c-0.39415,0.11588 -0.84013,0.22605 -1.33873,0.3301c-0.49861,0.09303 -0.99681,0.17994 -1.49542,0.26114c-0.4982,0.06936 -0.95029,0.13302 -1.35628,0.19096c-0.8691,0.12772 -1.62843,0.3305 -2.2776,0.60877c-0.64917,0.27827 -1.15349,0.65488 -1.51255,1.13024c-0.35947,0.46352 -0.539,1.04333 -0.539,1.7386c0,1.00864 0.36518,1.7794 1.09514,2.31269c0.7418,0.52146 1.68107,0.78219 2.81701,0.78219zM300.88441,190.85649v15.44012h-7.4073v-35.60953h7.1984v13.61441h0.31337c0.60266,-1.5765 1.5762,-2.81101 2.92106,-3.70357c1.34444,-0.90415 3.03123,-1.35619 5.05953,-1.35619c1.85489,0 3.4719,0.4057 4.85102,1.2171c1.39096,0.79986 2.46937,1.95322 3.23442,3.4601c0.77648,1.49533 1.15879,3.28624 1.14737,5.37277v17.00494h-7.4069v-15.68371c0.01142,-1.64581 -0.40599,-2.92669 -1.25223,-3.84243c-0.83441,-0.91573 -2.00504,-1.37362 -3.51229,-1.37362c-1.00823,0 -1.90099,0.21446 -2.67747,0.64333c-0.76504,0.42888 -1.3677,1.05483 -1.80837,1.87786c-0.42883,0.8114 -0.64917,1.79091 -0.6606,2.93844zM324.03133,206.29661v-26.70714h7.4073v26.70714zM327.75253,176.14675c-1.10127,0 -2.04625,-0.36514 -2.83415,-1.09542c-0.77688,-0.74187 -1.16532,-1.62864 -1.16532,-2.66029c0,-1.02007 0.38844,-1.89524 1.16532,-2.62549c0.7879,-0.74187 1.73288,-1.11281 2.83415,-1.11281c1.10085,0 2.04013,0.37094 2.8166,1.11281c0.7883,0.73024 1.18246,1.60542 1.18246,2.62549c0,1.03165 -0.39415,1.91842 -1.18246,2.66029c-0.77648,0.73029 -1.71575,1.09542 -2.8166,1.09542z" fill="url(#color-1)"/><path d="M191.32615,153.36449v13.35359h-2.43836l-5.80964,-8.40468h-0.09785v8.40468h-2.82325v-13.35359h2.4777l5.76382,8.39816h0.11751v-8.39816zM193.65883,166.71808v-13.35359h8.99819v2.32774h-6.17466v3.1819h5.71155v2.32774h-5.71155v3.18844h6.20077v2.32774zM207.90751,166.71808l-3.82116,-13.35359h3.08426l2.21028,9.27839h0.11099l2.43877,-9.27839h2.64074l2.43184,9.29798h0.11751l2.21028,-9.29798h3.08426l-3.82116,13.35359h-2.75132l-2.54323,-8.7307h-0.10405l-2.5367,8.7307zM230.47748,166.71808h-3.02552l4.60988,-13.35359h3.63837l4.60335,13.35359h-3.02552l-3.345,-10.30208h-0.10405zM230.28856,161.46922h7.14617v2.20387h-7.14617zM244.73432,153.36449v13.35359h-2.82354v-13.35359zM247.0568,166.71808v-13.35359h5.26843c1.00864,0 1.86917,0.18039 2.58199,0.54121c0.71731,0.35645 1.26284,0.86285 1.63659,1.5192c0.37824,0.65206 0.56756,1.41927 0.56756,2.30167c0,0.88676 -0.19136,1.64965 -0.57369,2.28862c-0.38273,0.63465 -0.93683,1.12151 -1.6627,1.46057c-0.7218,0.33907 -1.59538,0.50856 -2.62116,0.50856h-3.52779v-2.26904h3.07121c0.539,0 0.9866,-0.07393 1.34322,-0.22172c0.35621,-0.14779 0.62142,-0.36947 0.79524,-0.66504c0.1783,-0.29561 0.26766,-0.66292 0.26766,-1.10196c0,-0.44336 -0.08936,-0.8172 -0.26766,-1.12151c-0.17382,-0.30427 -0.44107,-0.53463 -0.80177,-0.69111c-0.35662,-0.16084 -0.80626,-0.24126 -1.34975,-0.24126h-1.90385v11.04539zM254.26825,160.64114l3.31889,6.07694h-3.1165l-3.24708,-6.07694zM262.07338,164.8924l-0.07181,0.71722c-0.05671,0.57377 -0.16525,1.14541 -0.32602,1.71485c-0.15668,0.57377 -0.32194,1.09323 -0.49575,1.55833c-0.16933,0.46511 -0.30642,0.83025 -0.41047,1.09542h-1.79981c0.06528,-0.25648 0.15423,-0.6151 0.26726,-1.07589c0.11302,-0.45642 0.21951,-0.96935 0.31948,-1.53878c0.09997,-0.56944 0.16322,-1.14973 0.18932,-1.74093l0.03265,-0.73024zM276.93614,160.0413c0,1.45621 -0.27582,2.69506 -0.82788,3.71655c-0.54798,1.02153 -1.29549,1.80181 -2.24292,2.34081c-0.94336,0.53468 -2.00422,0.80198 -3.1822,0.80198c-1.18654,0 -2.25149,-0.2695 -3.19485,-0.80851c-0.94336,-0.539 -1.68882,-1.31927 -2.23639,-2.34081c-0.54758,-1.02149 -0.82177,-2.25817 -0.82177,-3.71002c0,-1.45621 0.27419,-2.69509 0.82177,-3.71658c0.54758,-1.02153 1.29304,-1.7996 2.23639,-2.33427c0.94336,-0.539 2.0083,-0.80851 3.19485,-0.80851c1.17797,0 2.23884,0.26951 3.1822,0.80851c0.94744,0.53468 1.69494,1.31274 2.24292,2.33427c0.55206,1.02149 0.82788,2.26038 0.82788,3.71658zM274.07384,160.0413c0,-0.94327 -0.14118,-1.73876 -0.42394,-2.38646c-0.27827,-0.64766 -0.67161,-1.13888 -1.18001,-1.47358c-0.5088,-0.3347 -1.10412,-0.50203 -1.78674,-0.50203c-0.68222,0 -1.27794,0.16733 -1.78634,0.50203c-0.5088,0.3347 -0.90419,0.82593 -1.18695,1.47358c-0.27787,0.6477 -0.41701,1.44319 -0.41701,2.38646c0,0.94327 0.13914,1.73873 0.41701,2.38643c0.28276,0.64766 0.67814,1.13888 1.18695,1.47358c0.5084,0.3347 1.10412,0.50208 1.78634,0.50208c0.68263,0 1.27794,-0.16737 1.78674,-0.50208c0.5084,-0.3347 0.90174,-0.82593 1.18001,-1.47358c0.28276,-0.6477 0.42394,-1.44315 0.42394,-2.38643zM290.19699,153.36449v13.35359h-2.43877l-5.80947,-8.40468h-0.09793v8.40468h-2.82313v-13.35359h2.47754l5.76418,8.39816h0.1171v-8.39816zM299.08094,166.71808h-3.02552l4.60988,-13.35359h3.63837l4.60335,13.35359h-3.02552l-3.345,-10.30208h-0.10405zM298.89161,161.46922h7.14658v2.20387h-7.14658zM313.33737,153.36449v13.35359h-2.82313v-13.35359zM315.66027,166.71808v-13.35359h5.26843c1.00864,0 1.86917,0.18039 2.58199,0.54121c0.71731,0.35645 1.26284,0.86285 1.63659,1.5192c0.37824,0.65206 0.56756,1.41927 0.56756,2.30167c0,0.88676 -0.19136,1.64965 -0.57409,2.28862c-0.38232,0.63465 -0.93683,1.12151 -1.6627,1.46057c-0.72139,0.33907 -1.59497,0.50856 -2.62116,0.50856h-3.52738v-2.26904h3.07121c0.539,0 0.9866,-0.07393 1.34322,-0.22172c0.35621,-0.14779 0.62142,-0.36947 0.79524,-0.66504c0.1783,-0.29561 0.26726,-0.66292 0.26726,-1.10196c0,-0.44336 -0.08895,-0.8172 -0.26726,-1.12151c-0.17382,-0.30427 -0.44107,-0.53463 -0.80177,-0.69111c-0.35662,-0.16084 -0.80667,-0.24126 -1.34975,-0.24126h-1.90385v11.04539zM322.87172,160.64114l3.31889,6.07694h-3.1165l-3.24748,-6.07694zM329.2814,166.88761c-0.43047,0 -0.80014,-0.15216 -1.10861,-0.45642c-0.30439,-0.30863 -0.45659,-0.67814 -0.45659,-1.10844c0,-0.42602 0.1522,-0.79116 0.45659,-1.09542c0.30847,-0.30427 0.67814,-0.45642 1.10861,-0.45642c0.41701,0 0.78219,0.15216 1.09514,0.45642c0.31295,0.30427 0.46964,0.6694 0.46964,1.09542c0,0.28688 -0.07386,0.54985 -0.22156,0.78891c-0.14362,0.23474 -0.33254,0.42385 -0.56756,0.56728c-0.23461,0.13909 -0.4933,0.20866 -0.77566,0.20866z" fill="url(#color-2)"/></g></g></g></svg>