<svg version="1.1" xmlns="http://www.w3.org/2000/svg" xmlns:xlink="http://www.w3.org/1999/xlink" width="184.20229" height="63.25762" viewBox="0,0,184.20229,63.25762"><defs><linearGradient x1="146.82028" y1="168.27604" x2="334.19946" y2="168.27604" gradientUnits="userSpaceOnUse" id="color-1"><stop offset="0" stop-color="#3ff21b"/><stop offset="1" stop-color="#1bf2d9" stop-opacity="0.8"/></linearGradient><linearGradient x1="210.50471" y1="200.93472" x2="332.97476" y2="200.93472" gradientUnits="userSpaceOnUse" id="color-2"><stop offset="0" stop-color="#3ff21b"/><stop offset="1" stop-color="#1bf2d9" stop-opacity="0.8"/></linearGradient></defs><g transform="translate(-147.89886,-148.37119)"><g stroke="none" stroke-miterlimit="10"><g><path d="M163.99046,159.31348v5.56679h-16.09161v-5.56679zM151.55208,152.9116h7.41083v24.91155c0,0.68424 0.10439,1.21772 0.31316,1.60044c0.20873,0.37117 0.4987,0.63203 0.86978,0.78267c0.38272,0.15105 0.82345,0.22616 1.32215,0.22616c0.34794,0 0.69583,-0.02898 1.04377,-0.08695c0.34794,-0.0694 0.61468,-0.12165 0.80022,-0.15635l1.16555,5.51442c-0.37108,0.11594 -0.89301,0.24943 -1.56566,0.40007c-0.67265,0.16248 -1.4903,0.26127 -2.45287,0.29597c-1.78602,0.0694 -3.35168,-0.16819 -4.69701,-0.71318c-1.3337,-0.5454 -2.37167,-1.39167 -3.11392,-2.54003c-0.74225,-1.14795 -1.10758,-2.598 -1.09598,-4.34903zM193.72958,159.31348l-9.34197,26.72072h-8.35021l-9.34181,-26.72072h7.82833l5.54944,19.11851h0.27833l5.53201,-19.11851zM216.47962,186.53878c-1.70478,0 -3.22423,-0.29597 -4.55793,-0.8875c-1.3337,-0.60296 -2.38898,-1.49005 -3.16626,-2.66127c-0.76544,-1.18306 -1.14795,-2.65597 -1.14795,-4.4188c0,-1.4845 0.27229,-2.73125 0.81769,-3.74024c0.54499,-1.00899 1.28716,-1.8208 2.22651,-2.43548c0.93935,-0.61468 2.00647,-1.07855 3.20096,-1.39171c1.20633,-0.31312 2.47022,-0.53348 3.79249,-0.66105c1.55414,-0.16235 2.80661,-0.31312 3.75738,-0.45232c0.95118,-0.15076 1.6411,-0.37108 2.07015,-0.66105c0.42905,-0.28993 0.64378,-0.71902 0.64378,-1.28732v-0.10439c0,-1.10174 -0.34781,-1.95417 -1.04385,-2.55726c-0.6842,-0.60304 -1.65824,-0.9046 -2.92254,-0.9046c-1.3337,0 -2.3947,0.29577 -3.1834,0.88721c-0.78871,0.5799 -1.31043,1.31051 -1.56558,2.19193l-6.85424,-0.55667c0.34781,-1.62367 1.03201,-3.02697 2.0526,-4.20991c1.02058,-1.19453 2.33714,-2.11077 3.94925,-2.74864c1.62354,-0.64946 3.50224,-0.97417 5.63607,-0.97417c1.48475,0 2.9054,0.17395 4.26237,0.52189c1.3684,0.34794 2.58044,0.88721 3.63573,1.61787c1.06712,0.73062 1.90768,1.67004 2.52247,2.8182c0.6148,1.13656 0.92179,2.49925 0.92179,4.08813v18.02257h-7.02774v-3.70554h-0.20902c-0.42905,0.83525 -1.00303,1.5717 -1.72234,2.20936c-0.7189,0.62623 -1.58272,1.11938 -2.59187,1.47862c-1.00915,0.34822 -2.17466,0.52213 -3.49652,0.52213zM218.60202,181.42402c1.08998,0 2.0526,-0.21432 2.88744,-0.64338c0.83525,-0.44089 1.49046,-1.03242 1.96605,-1.77455c0.47518,-0.74225 0.71318,-1.58309 0.71318,-2.52247v-2.83559c-0.23188,0.15076 -0.55112,0.28993 -0.9569,0.4175c-0.39435,0.11598 -0.84096,0.22616 -1.33941,0.33055c-0.49886,0.09275 -0.99731,0.17975 -1.49618,0.26094c-0.49845,0.06956 -0.95078,0.13337 -1.35697,0.19134c-0.86954,0.12757 -1.62926,0.33055 -2.27876,0.60888c-0.6495,0.27833 -1.15408,0.65526 -1.51373,1.13077c-0.35925,0.46392 -0.53928,1.04377 -0.53928,1.73965c0,1.00899 0.36537,1.78022 1.09611,2.31379c0.74217,0.52172 1.68151,0.78258 2.81844,0.78258zM259.50906,166.93304l-6.78443,0.41754c-0.11594,-0.5799 -0.36537,-1.10178 -0.74788,-1.5657c-0.38292,-0.47547 -0.8875,-0.85239 -1.51373,-1.13077c-0.61439,-0.28993 -1.35084,-0.43489 -2.20936,-0.43489c-1.14795,0 -2.11628,0.24355 -2.90499,0.73066c-0.78871,0.47547 -1.18306,1.11333 -1.18306,1.91359c0,0.63786 0.25515,1.17714 0.76544,1.61783c0.51029,0.44073 1.38595,0.79446 2.62698,1.0612l4.83634,0.97417c2.59759,0.53352 4.53425,1.39171 5.80998,2.57469c1.27573,1.18294 1.9138,2.737 1.9138,4.66219c0,1.75136 -0.51601,3.28795 -1.54843,4.61022c-1.02058,1.32186 -2.42368,2.35428 -4.2097,3.09645c-1.77459,0.73074 -3.82147,1.0957 -6.14106,1.0957c-3.53734,0 -6.35538,-0.73645 -8.45452,-2.20936c-2.08771,-1.48434 -3.31118,-3.50224 -3.67043,-6.05374l7.28901,-0.38272c0.22004,1.07859 0.7536,1.9022 1.60028,2.47047c0.84668,0.55642 1.93094,0.83484 3.25321,0.83484c1.299,0 2.34244,-0.24943 3.13115,-0.74788c0.80055,-0.51029 1.20633,-1.16571 1.21776,-1.96593c-0.01143,-0.67265 -0.29556,-1.22356 -0.85239,-1.65265c-0.55642,-0.44069 -1.41494,-0.77703 -2.57473,-1.00899l-4.62733,-0.922c-2.60943,-0.52189 -4.5518,-1.42649 -5.82753,-2.71381c-1.2643,-1.28736 -1.89624,-2.92838 -1.89624,-4.92317c0,-1.71642 0.46375,-3.19512 1.39167,-4.43607c0.93935,-1.24095 2.25549,-2.19773 3.94884,-2.87037c1.70478,-0.67269 3.69982,-1.00899 5.9843,-1.00899c3.37487,0 6.03083,0.71322 7.96749,2.13976c1.9485,1.42649 3.08502,3.36907 3.40957,5.82774zM272.40434,186.53878c-1.70478,0 -3.22423,-0.29597 -4.55793,-0.8875c-1.3337,-0.60296 -2.38898,-1.49005 -3.16626,-2.66127c-0.76544,-1.18306 -1.14795,-2.65597 -1.14795,-4.4188c0,-1.4845 0.2727,-2.73125 0.81769,-3.74024c0.54499,-1.00899 1.28716,-1.8208 2.22651,-2.43548c0.93935,-0.61468 2.00647,-1.07855 3.20096,-1.39171c1.20633,-0.31312 2.47022,-0.53348 3.79249,-0.66105c1.55414,-0.16235 2.80661,-0.31312 3.75779,-0.45232c0.95078,-0.15076 1.64069,-0.37108 2.07015,-0.66105c0.42905,-0.28993 0.64338,-0.71902 0.64338,-1.28732v-0.10439c0,-1.10174 -0.34781,-1.95417 -1.04385,-2.55726c-0.6842,-0.60304 -1.65824,-0.9046 -2.92254,-0.9046c-1.3337,0 -2.3947,0.29577 -3.1834,0.88721c-0.78871,0.5799 -1.31043,1.31051 -1.56558,2.19193l-6.85424,-0.55667c0.34781,-1.62367 1.03201,-3.02697 2.0526,-4.20991c1.02058,-1.19453 2.33714,-2.11077 3.94925,-2.74864c1.62354,-0.64946 3.50224,-0.97417 5.63648,-0.97417c1.48434,0 2.90499,0.17395 4.26196,0.52189c1.3684,0.34794 2.58044,0.88721 3.63573,1.61787c1.06712,0.73062 1.90768,1.67004 2.52247,2.8182c0.6148,1.13656 0.9222,2.49925 0.9222,4.08813v18.02257h-7.02815v-3.70554h-0.20902c-0.42905,0.83525 -1.00303,1.5717 -1.72193,2.20936c-0.71931,0.62623 -1.58313,1.11938 -2.59228,1.47862c-1.00875,0.34822 -2.17466,0.52213 -3.49652,0.52213zM274.52675,181.42402c1.08998,0 2.0526,-0.21432 2.88784,-0.64338c0.83484,-0.44089 1.49005,-1.03242 1.96564,-1.77455c0.47559,-0.74225 0.71318,-1.58309 0.71318,-2.52247v-2.83559c-0.23188,0.15076 -0.55071,0.28993 -0.9569,0.4175c-0.39435,0.11598 -0.84055,0.22616 -1.33941,0.33055c-0.49886,0.09275 -0.99731,0.17975 -1.49618,0.26094c-0.49845,0.06956 -0.95078,0.13337 -1.35697,0.19134c-0.86954,0.12757 -1.62926,0.33055 -2.27876,0.60888c-0.6495,0.27833 -1.15408,0.65526 -1.51332,1.13077c-0.35965,0.46392 -0.53928,1.04377 -0.53928,1.73965c0,1.00899 0.36537,1.78022 1.0957,2.31379c0.74217,0.52172 1.68192,0.78258 2.81844,0.78258zM300.61246,170.58628v15.44792h-7.41107v-35.62764h7.20206v13.62132h0.31352c0.60296,-1.57729 1.57701,-2.81244 2.92254,-3.70545c1.34513,-0.9046 3.03277,-1.35689 5.0621,-1.35689c1.85583,0 3.47366,0.40591 4.85349,1.21772c1.39167,0.80026 2.47063,1.95421 3.23607,3.46186c0.77687,1.49609 1.15938,3.28791 1.14795,5.3755v17.01358h-7.41066v-15.69148c0.01143,-1.64685 -0.40619,-2.92838 -1.25287,-3.84458c-0.83484,-0.9162 -2.00606,-1.37432 -3.51407,-1.37432c-1.00875,0 -1.90196,0.21457 -2.67883,0.64366c-0.76544,0.42909 -1.3684,1.05537 -1.80929,1.87881c-0.42905,0.81181 -0.6495,1.79182 -0.66093,2.93998zM323.77114,186.0342v-26.72072h7.41107v26.72072zM327.49423,155.86901c-1.10182,0 -2.04729,-0.36533 -2.83559,-1.09598c-0.77728,-0.74225 -1.16591,-1.62946 -1.16591,-2.66164c0,-1.02058 0.38864,-1.8962 1.16591,-2.62682c0.7883,-0.74225 1.73377,-1.11338 2.83559,-1.11338c1.10141,0 2.04117,0.37113 2.81804,1.11338c0.78871,0.73062 1.18306,1.60624 1.18306,2.62682c0,1.03218 -0.39435,1.91939 -1.18306,2.66164c-0.77687,0.73066 -1.71662,1.09598 -2.81804,1.09598z" fill-opacity="0.8" fill="url(#color-1)"/><path d="M220.86568,190.56192h3.12544v14.73478c0,1.33247 -0.26372,2.47267 -0.79156,3.41977c-0.52091,0.9471 -1.25491,1.6709 -2.20201,2.17139c-0.9471,0.49396 -2.05668,0.74094 -3.32833,0.74094c-1.17041,0 -2.22242,-0.2131 -3.15605,-0.63929c-0.92669,-0.4262 -1.6611,-1.04508 -2.20201,-1.85705c-0.53438,-0.81851 -0.80177,-1.81297 -0.80177,-2.98337h3.11523c0,0.57479 0.13186,1.07202 0.39599,1.49169c0.27066,0.41926 0.63929,0.74748 1.1059,0.98425c0.47355,0.23024 1.01487,0.34496 1.62395,0.34496c0.66297,0 1.22429,-0.13839 1.68437,-0.41599c0.46661,-0.28413 0.82177,-0.70012 1.06549,-1.24797c0.24372,-0.54826 0.36537,-1.21776 0.36537,-2.00933zM246.60807,200.9531c0,2.21916 -0.40578,4.12683 -1.21776,5.72343c-0.81157,1.59007 -1.92441,2.81436 -3.33853,3.67369c-1.40718,0.85239 -3.00705,1.27859 -4.80001,1.27859c-1.79949,0 -3.4063,-0.4262 -4.82001,-1.27859c-1.40718,-0.85933 -2.51676,-2.0873 -3.32874,-3.6839c-0.81157,-1.5966 -1.21776,-3.50101 -1.21776,-5.71323c0,-2.21875 0.40619,-4.12316 1.21776,-5.71323c0.81198,-1.5966 1.92156,-2.82089 3.32874,-3.67329c1.41371,-0.85933 3.02052,-1.28879 4.82001,-1.28879c1.79296,0 3.39283,0.42946 4.80001,1.28879c1.41412,0.85239 2.52697,2.07668 3.33853,3.67329c0.81198,1.59007 1.21776,3.49448 1.21776,5.71323zM243.50304,200.9531c0,-1.69131 -0.27392,-3.11523 -0.82218,-4.27216c-0.54091,-1.16347 -1.28512,-2.0428 -2.23222,-2.63841c-0.94057,-0.60214 -2.00606,-0.90301 -3.19688,-0.90301c-1.19735,0 -2.2661,0.30087 -3.20667,0.90301c-0.94016,0.59561 -1.68437,1.47495 -2.23263,2.63841c-0.54091,1.15693 -0.81157,2.58085 -0.81157,4.27216c0,1.69131 0.27066,3.1189 0.81157,4.28278c0.54826,1.15653 1.29247,2.03627 2.23263,2.63841c0.94057,0.5952 2.00933,0.89281 3.20667,0.89281c1.19082,0 2.25631,-0.2976 3.19688,-0.89281c0.9471,-0.60214 1.69131,-1.48189 2.23222,-2.63841c0.54826,-1.16387 0.82218,-2.59147 0.82218,-4.28278zM250.51772,211.34468v-20.78276h13.03v2.69924h-9.89436v6.33211h9.21424v2.68944h-9.21424v6.36273h10.01601v2.69924zM269.91779,190.56192l4.97269,8.12834h0.16207l4.97269,-8.12834h3.63287l-6.47458,10.39118l6.515,10.39158h-3.65328l-4.9927,-8.01689h-0.16207l-4.9931,8.01689h-3.65287l6.62645,-10.39158l-6.58603,-10.39118zM293.89457,199.63409v2.63841h-9.21424v-2.63841zM295.45484,193.26116v-2.69924h16.0844v2.69924h-6.48438v18.08352h-3.12544v-18.08352zM316.90996,190.56192l5.78426,16.92659h0.23351l5.78426,-16.92659h3.38915l-7.47884,20.78276h-3.62266l-7.47884,-20.78276z" fill-opacity="0.8" fill="url(#color-2)"/></g></g></g></svg>