<svg version="1.1" xmlns="http://www.w3.org/2000/svg" xmlns:xlink="http://www.w3.org/1999/xlink" width="183.11051" height="83.27766" viewBox="0,0,183.11051,83.27766"><defs><linearGradient x1="147.36902" y1="158.21335" x2="334.25224" y2="158.21335" gradientUnits="userSpaceOnUse" id="color-1"><stop offset="0" stop-color="#3ff21b"/><stop offset="1" stop-color="#1bf2d9" stop-opacity="0.8"/></linearGradient><linearGradient x1="188.08432" y1="203.40733" x2="333.03078" y2="203.40733" gradientUnits="userSpaceOnUse" id="color-2"><stop offset="0" stop-color="#3ff21b"/><stop offset="1" stop-color="#1bf2d9" stop-opacity="0.8"/></linearGradient></defs><g transform="translate(-148.44475,-138.36117)"><g stroke="none" stroke-miterlimit="10"><g><path d="M164.49376,149.27451v5.55206h-16.04901v-5.55206zM152.08829,142.88957h7.39121v24.84561c0,0.68243 0.10411,1.2145 0.31233,1.5962c0.20818,0.37018 0.49738,0.63035 0.86748,0.78059c0.38171,0.15065 0.82127,0.22556 1.31865,0.22556c0.34702,0 0.69399,-0.02891 1.04101,-0.08672c0.34702,-0.06922 0.61305,-0.12133 0.7981,-0.15594l1.16246,5.49982c-0.3701,0.11563 -0.89065,0.24877 -1.56151,0.39901c-0.67087,0.16205 -1.48635,0.26058 -2.44638,0.29519c-1.78129,0.06922 -3.34281,-0.16775 -4.68458,-0.7113c-1.33017,-0.54396 -2.3654,-1.38798 -3.10568,-2.53331c-0.74029,-1.14491 -1.10465,-2.59112 -1.09308,-4.33752zM194.15416,149.27451l-9.31725,26.64999h-8.32811l-9.31709,-26.64999h7.80761l5.53476,19.06791h0.2776l5.51737,-19.06791zM216.84398,176.42774c-1.70027,0 -3.21569,-0.29519 -4.54586,-0.88515c-1.33017,-0.60136 -2.38266,-1.48611 -3.15788,-2.65423c-0.76341,-1.17993 -1.14491,-2.64894 -1.14491,-4.40711c0,-1.48057 0.27157,-2.72402 0.81553,-3.73034c0.54355,-1.00632 1.28375,-1.81598 2.22061,-2.42903c0.93686,-0.61305 2.00116,-1.0757 3.19249,-1.38803c1.20314,-0.31229 2.46368,-0.53207 3.78245,-0.6593c1.55003,-0.16192 2.79918,-0.31229 3.74744,-0.45113c0.94867,-0.15036 1.63675,-0.3701 2.06467,-0.6593c0.42792,-0.28916 0.64208,-0.71712 0.64208,-1.28392v-0.10411c0,-1.09882 -0.34689,-1.949 -1.04109,-2.55049c-0.68239,-0.60145 -1.65386,-0.90221 -2.91481,-0.90221c-1.33017,0 -2.38836,0.29498 -3.17498,0.88487c-0.78662,0.57836 -1.30696,1.30704 -1.56143,2.18613l-6.8361,-0.55519c0.34689,-1.61937 1.02928,-3.01896 2.04717,-4.19877c1.01788,-1.19137 2.33095,-2.10518 3.9388,-2.74136c1.61925,-0.64774 3.49297,-0.97159 5.62115,-0.97159c1.48082,0 2.89771,0.17349 4.25108,0.5205c1.36478,0.34702 2.57361,0.88487 3.6261,1.61359c1.0643,0.72868 1.90263,1.66562 2.5158,2.81074c0.61317,1.13355 0.91935,2.49263 0.91935,4.07731v17.97487h-7.00914v-3.69573h-0.20846c-0.42792,0.83303 -1.00037,1.56754 -1.71778,2.20351c-0.717,0.62457 -1.57853,1.11641 -2.58501,1.47471c-1.00648,0.3473 -2.1689,0.52075 -3.48727,0.52075zM218.96077,171.32652c1.0871,0 2.04717,-0.21376 2.87979,-0.64167c0.83303,-0.43973 1.48652,-1.02969 1.96085,-1.76985c0.47393,-0.74029 0.7113,-1.5789 0.7113,-2.5158v-2.82808c-0.23126,0.15036 -0.54966,0.28916 -0.95437,0.4164c-0.39331,0.11567 -0.83874,0.22556 -1.33587,0.32967c-0.49754,0.09251 -0.99467,0.17927 -1.49222,0.26025c-0.49713,0.06938 -0.94826,0.13302 -1.35338,0.19083c-0.86724,0.12724 -1.62495,0.32967 -2.27273,0.60727c-0.64778,0.2776 -1.15102,0.65352 -1.50972,1.12777c-0.35829,0.46269 -0.53785,1.04101 -0.53785,1.73504c0,1.00632 0.3644,1.77551 1.09321,2.30766c0.7402,0.52034 1.67706,0.78051 2.81098,0.78051zM259.75953,156.87389l-6.76648,0.41644c-0.11563,-0.57836 -0.3644,-1.09887 -0.7459,-1.56155c-0.38191,-0.47421 -0.88515,-0.85014 -1.50972,-1.12777c-0.61277,-0.28916 -1.34727,-0.43374 -2.20351,-0.43374c-1.14491,0 -2.11068,0.24291 -2.8973,0.72872c-0.78662,0.47421 -1.17993,1.11039 -1.17993,1.90853c0,0.63618 0.25447,1.17403 0.76341,1.61355c0.50894,0.43956 1.38228,0.79236 2.62003,1.05839l4.82354,0.97159c2.59071,0.53211 4.52225,1.38803 5.7946,2.56787c1.27235,1.17981 1.90873,2.72976 1.90873,4.64985c0,1.74673 -0.51464,3.27925 -1.54433,4.59802c-1.01788,1.31836 -2.41727,2.34805 -4.19856,3.08826c-1.76989,0.7288 -3.81136,1.0928 -6.1248,1.0928c-3.52798,0 -6.33856,-0.7345 -8.43214,-2.20351c-2.08218,-1.48041 -3.30242,-3.49297 -3.66071,-6.03771l7.26972,-0.38171c0.21946,1.07574 0.7516,1.89717 1.59604,2.46393c0.84444,0.55495 1.92583,0.83263 3.2446,0.83263c1.29556,0 2.33624,-0.24877 3.12286,-0.7459c0.79843,-0.50894 1.20314,-1.16263 1.21454,-1.96073c-0.0114,-0.67087 -0.29478,-1.22032 -0.85014,-1.64828c-0.55495,-0.43952 -1.41119,-0.77497 -2.56791,-1.00632l-4.61508,-0.91955c-2.60252,-0.5205 -4.53976,-1.42271 -5.81211,-2.70663c-1.26095,-1.28396 -1.89123,-2.92063 -1.89123,-4.91014c0,-1.71187 0.46253,-3.18666 1.38798,-4.42433c0.93686,-1.23766 2.24952,-2.19191 3.93839,-2.86277c1.70027,-0.67091 3.69003,-1.00632 5.96846,-1.00632c3.36593,0 6.01487,0.71134 7.9464,2.13409c1.94334,1.42271 3.07686,3.36015 3.40054,5.81231zM272.62068,176.42774c-1.70027,0 -3.21569,-0.29519 -4.54586,-0.88515c-1.33017,-0.60136 -2.38266,-1.48611 -3.15788,-2.65423c-0.76341,-1.17993 -1.14491,-2.64894 -1.14491,-4.40711c0,-1.48057 0.27198,-2.72402 0.81553,-3.73034c0.54355,-1.00632 1.28375,-1.81598 2.22061,-2.42903c0.93686,-0.61305 2.00116,-1.0757 3.19249,-1.38803c1.20314,-0.31229 2.46368,-0.53207 3.78245,-0.6593c1.55003,-0.16192 2.79918,-0.31229 3.74784,-0.45113c0.94826,-0.15036 1.63635,-0.3701 2.06467,-0.6593c0.42792,-0.28916 0.64167,-0.71712 0.64167,-1.28392v-0.10411c0,-1.09882 -0.34689,-1.949 -1.04109,-2.55049c-0.68239,-0.60145 -1.65386,-0.90221 -2.91481,-0.90221c-1.33017,0 -2.38836,0.29498 -3.17498,0.88487c-0.78662,0.57836 -1.30696,1.30704 -1.56143,2.18613l-6.8361,-0.55519c0.34689,-1.61937 1.02928,-3.01896 2.04717,-4.19877c1.01788,-1.19137 2.33095,-2.10518 3.9388,-2.74136c1.61925,-0.64774 3.49297,-0.97159 5.62156,-0.97159c1.48041,0 2.8973,0.17349 4.25068,0.5205c1.36478,0.34702 2.57361,0.88487 3.6261,1.61359c1.0643,0.72868 1.90263,1.66562 2.5158,2.81074c0.61317,1.13355 0.91976,2.49263 0.91976,4.07731v17.97487h-7.00955v-3.69573h-0.20846c-0.42792,0.83303 -1.00037,1.56754 -1.71737,2.20351c-0.7174,0.62457 -1.57894,1.11641 -2.58542,1.47471c-1.00608,0.3473 -2.1689,0.52075 -3.48727,0.52075zM274.73747,171.32652c1.0871,0 2.04717,-0.21376 2.8802,-0.64167c0.83263,-0.43973 1.48611,-1.02969 1.96044,-1.76985c0.47433,-0.74029 0.7113,-1.5789 0.7113,-2.5158v-2.82808c-0.23126,0.15036 -0.54925,0.28916 -0.95437,0.4164c-0.39331,0.11567 -0.83833,0.22556 -1.33587,0.32967c-0.49754,0.09251 -0.99467,0.17927 -1.49222,0.26025c-0.49713,0.06938 -0.94826,0.13302 -1.35338,0.19083c-0.86724,0.12724 -1.62495,0.32967 -2.27273,0.60727c-0.64778,0.2776 -1.15102,0.65352 -1.50932,1.12777c-0.3587,0.46269 -0.53785,1.04101 -0.53785,1.73504c0,1.00632 0.3644,1.77551 1.0928,2.30766c0.7402,0.52034 1.67747,0.78051 2.81098,0.78051zM300.75414,160.51747v15.40704h-7.39146v-35.53334h7.18299v13.58527h0.31269c0.60136,-1.57312 1.57283,-2.805 2.91481,-3.69565c1.34157,-0.90221 3.02474,-1.3533 5.0487,-1.3533c1.85092,0 3.46446,0.40483 4.84064,1.2145c1.38798,0.79814 2.46409,1.94904 3.2275,3.4527c0.77481,1.49213 1.15631,3.27921 1.14491,5.36127v16.96855h-7.39105v-15.64994c0.0114,-1.6425 -0.40512,-2.92063 -1.24955,-3.8344c-0.83263,-0.91377 -2.00075,-1.37068 -3.50477,-1.37068c-1.00608,0 -1.89693,0.214 -2.67174,0.64196c-0.76341,0.42796 -1.36478,1.05257 -1.8045,1.87384c-0.42792,0.80966 -0.64778,1.78708 -0.65918,2.93219zM323.85152,175.9245v-26.64999h7.39146v26.64999zM327.56475,145.83915c-1.09891,0 -2.04187,-0.36436 -2.82808,-1.09308c-0.77522,-0.74029 -1.16283,-1.62515 -1.16283,-2.6546c0,-1.01788 0.38761,-1.89118 1.16283,-2.61987c0.78621,-0.74029 1.72918,-1.11043 2.82808,-1.11043c1.0985,0 2.03576,0.37014 2.81058,1.11043c0.78662,0.72868 1.17993,1.60198 1.17993,2.61987c0,1.02945 -0.39331,1.91431 -1.17993,2.6546c-0.77481,0.72872 -1.71208,1.09308 -2.81058,1.09308z" fill-opacity="0.8" fill="url(#color-1)"/><path d="M191.03374,221.11848v-26.6502h7.04415v4.70221h0.31229c0.55536,-1.56143 1.48082,-2.79348 2.77638,-3.69573c1.29515,-0.90225 2.84518,-1.35338 4.64969,-1.35338c1.82771,0 3.38344,0.45683 4.66719,1.37088c1.28416,0.90225 2.14,2.12819 2.56791,3.67822h0.27768c0.54355,-1.52682 1.52682,-2.74706 2.94942,-3.66112c1.4344,-0.92505 3.12897,-1.38798 5.08371,-1.38798c2.48689,0 4.50515,0.79232 6.05518,2.37696c1.56143,1.57324 2.34235,3.80566 2.34235,6.69726v17.92287h-7.37395v-16.46527c0,-1.48082 -0.39331,-2.59112 -1.17993,-3.33133c-0.78621,-0.7402 -1.76949,-1.11031 -2.94942,-1.11031c-1.34157,0 -2.38836,0.42792 -3.14037,1.28375c-0.75201,0.84444 -1.12781,1.96044 -1.12781,3.34843v16.27472h-7.16549v-16.62161c0,-1.30696 -0.37621,-2.34805 -1.12781,-3.12286c-0.7402,-0.77522 -1.71778,-1.16242 -2.93232,-1.16242c-0.82123,0 -1.56143,0.20806 -2.22061,0.62457c-0.64778,0.40471 -1.16283,0.97717 -1.54433,1.71737c-0.38191,0.7288 -0.57246,1.58464 -0.57246,2.56791v15.99704zM247.63899,221.63882c-2.69495,0 -5.02549,-0.57246 -6.99204,-1.71737c-1.95474,-1.15672 -3.46446,-2.76457 -4.52836,-4.82354c-1.0643,-2.07037 -1.59645,-4.47054 -1.59645,-7.2005c0,-2.75276 0.53215,-5.15863 1.59645,-7.2176c1.06389,-2.07037 2.57361,-3.67822 4.52836,-4.82313c1.96655,-1.15672 4.29709,-1.73529 6.99204,-1.73529c2.69535,0 5.0202,0.57856 6.97494,1.73529c1.96655,1.14491 3.48157,2.75276 4.54586,4.82313c1.06389,2.05897 1.59604,4.46484 1.59604,7.2176c0,2.72996 -0.53215,5.13013 -1.59604,7.2005c-1.0643,2.05897 -2.57931,3.66682 -4.54586,4.82354c-1.95474,1.14491 -4.27958,1.71737 -6.97494,1.71737zM247.67401,215.91344c1.22594,0 2.24952,-0.34689 3.07075,-1.04109c0.82123,-0.7056 1.4401,-1.66566 1.85662,-2.8802c0.42792,-1.21454 0.64208,-2.59682 0.64208,-4.14645c0,-1.55003 -0.21416,-2.93232 -0.64208,-4.14685c-0.41652,-1.21454 -1.03539,-2.1746 -1.85662,-2.8802c-0.82123,-0.7056 -1.84481,-1.05819 -3.07075,-1.05819c-1.23775,0 -2.27884,0.35259 -3.12327,1.05819c-0.83263,0.7056 -1.46331,1.66566 -1.89123,2.8802c-0.41652,1.21454 -0.62457,2.59682 -0.62457,4.14685c0,1.54962 0.20806,2.93191 0.62457,4.14645c0.42792,1.21454 1.0586,2.1746 1.89123,2.8802c0.84444,0.6942 1.88553,1.04109 3.12327,1.04109zM289.54888,194.46828l-9.31729,26.6502h-8.32831l-9.31688,-26.6502h7.80757l5.53484,19.0682h0.27768l5.51733,-19.0682zM293.33092,221.11848v-26.6502h7.39146v26.6502zM297.04416,191.03313c-1.09891,0 -2.04187,-0.3644 -2.82808,-1.09321c-0.77522,-0.7402 -1.16283,-1.62495 -1.16283,-2.65464c0,-1.01788 0.38761,-1.89082 1.16283,-2.61962c0.78621,-0.7402 1.72918,-1.11071 2.82808,-1.11071c1.09891,0 2.03576,0.37051 2.81058,1.11071c0.78662,0.7288 1.17993,1.60174 1.17993,2.61962c0,1.02969 -0.39331,1.91443 -1.17993,2.65464c-0.77481,0.7288 -1.71167,1.09321 -2.81058,1.09321zM318.78816,221.63882c-2.74136,0 -5.10081,-0.55495 -7.07876,-1.66526c-1.96655,-1.12211 -3.48157,-2.70675 -4.54586,-4.75433c-1.0643,-2.05857 -1.59604,-4.49375 -1.59604,-7.30432c0,-2.74136 0.53174,-5.14723 1.59604,-7.2176c1.0643,-2.07037 2.56221,-3.68433 4.49375,-4.84064c1.94334,-1.15672 4.22177,-1.73529 6.8361,-1.73529c1.75809,0 3.39484,0.28338 4.90986,0.85014c1.52682,0.55536 2.85699,1.39409 3.99091,2.5158c1.14491,1.12211 2.03576,2.53331 2.67174,4.23358c0.63638,1.68887 0.95437,3.66682 0.95437,5.93385v2.03006h-22.50334v-4.58047h15.54591c0,-1.0643 -0.23126,-2.00686 -0.6942,-2.82808c-0.46253,-0.82123 -1.10461,-1.46331 -1.92583,-1.92624c-0.80983,-0.47393 -1.75239,-0.7113 -2.82808,-0.7113c-1.12211,0 -2.11679,0.26058 -2.98443,0.78092c-0.85584,0.50894 -1.52682,1.19703 -2.01256,2.06467c-0.48573,0.85584 -0.7345,1.8102 -0.7459,2.86269v4.35491c0,1.31877 0.24307,2.45798 0.7288,3.41805c0.49713,0.96007 1.19703,1.70027 2.09928,2.22102c0.90225,0.52034 1.97225,0.78051 3.20959,0.78051c0.82163,0 1.57324,-0.11563 2.25563,-0.34689c0.68239,-0.23126 1.26665,-0.57816 1.75239,-1.04109c0.48573,-0.46253 0.85584,-1.02928 1.11031,-1.70027l6.8361,0.45113c-0.34689,1.64246 -1.05819,3.07686 -2.13389,4.30279c-1.0643,1.21454 -2.44088,2.1632 -4.12935,2.84559c-1.67747,0.67099 -3.6147,1.00608 -5.81252,1.00608z" fill-opacity="0.8" fill="url(#color-2)"/></g></g></g></svg>