<svg version="1.1" xmlns="http://www.w3.org/2000/svg" xmlns:xlink="http://www.w3.org/1999/xlink" width="248.06654" height="35.8294" viewBox="0,0,248.06654,35.8294"><defs><linearGradient x1="196.73792" y1="178.17054" x2="276.03454" y2="178.17054" gradientUnits="userSpaceOnUse" id="color-1"><stop offset="0" stop-color="#00817b"/><stop offset="1" stop-color="#561e80"/></linearGradient><linearGradient x1="199.75114" y1="181.82946" x2="279.04776" y2="181.82946" gradientUnits="userSpaceOnUse" id="color-2"><stop offset="0" stop-color="#00817b"/><stop offset="1" stop-color="#561e80"/></linearGradient><linearGradient x1="198.24453" y1="180.10762" x2="277.54115" y2="180.10762" gradientUnits="userSpaceOnUse" id="color-3"><stop offset="0" stop-color="#02faee"/><stop offset="1" stop-color="#9631e1"/></linearGradient><linearGradient x1="212.71446" y1="180.29288" x2="268.60323" y2="180.29288" gradientTransform="translate(-531.80459,-462.28547) scale(2.50009,2.50009)" gradientUnits="userSpaceOnUse" id="color-4"><stop offset="0" stop-color="#9632e1"/><stop offset="1" stop-color="#04f8ee"/></linearGradient><linearGradient x1="289.03636" y1="180.16727" x2="339.49908" y2="180.16727" gradientTransform="translate(-800.31799,-510.40586) scale(2.76892,2.76892)" gradientUnits="userSpaceOnUse" id="color-5"><stop offset="0" stop-color="#9632e1"/><stop offset="1" stop-color="#04f8ee"/></linearGradient></defs><g transform="translate(-195.73792,-162.0853)"><g data-paper-data="{&quot;isPaintingLayer&quot;:true}" fill-rule="nonzero" stroke-linecap="butt" stroke-linejoin="miter" stroke-miterlimit="10" stroke-dasharray="" stroke-dashoffset="0" style="mix-blend-mode: normal"><path d="M196.73792,189.64327c0,-6.36836 0,-19.25801 0,-22.83602c0,-1.80441 1.29698,-3.72195 3.55329,-3.72195c13.86942,0 63.98716,0 71.92997,0c2.0757,0 3.81336,1.49746 3.81336,3.79178c0,6.41892 0,19.07517 0,22.62651c0,1.81677 -1.70222,3.75219 -3.74353,3.75219c-7.90196,0 -58.28277,0 -72.06965,0c-2.21325,0 -3.48345,-1.41965 -3.48345,-3.61252z" fill="none" stroke="url(#color-1)" stroke-width="2"/><path d="M199.75114,193.30218c0,-6.36836 0,-19.25801 0,-22.83602c0,-1.80441 1.29698,-3.72194 3.55329,-3.72194c13.86942,0 63.98716,0 71.92997,0c2.0757,0 3.81336,1.49746 3.81336,3.79178c0,6.41892 0,19.07517 0,22.62651c0,1.81677 -1.70222,3.75219 -3.74353,3.75219c-7.90196,0 -58.28277,0 -72.06964,0c-2.21325,0 -3.48345,-1.41965 -3.48345,-3.61252z" fill="none" stroke="url(#color-2)" stroke-width="2"/><path d="M198.24453,191.58034c0,-6.36836 0,-19.25801 0,-22.83602c0,-1.80441 1.29698,-3.72195 3.55329,-3.72195c13.86942,0 63.98717,0 71.92997,0c2.0757,0 3.81336,1.49746 3.81336,3.79178c0,6.41892 0,19.07517 0,22.62651c0,1.81677 -1.70222,3.75219 -3.74353,3.75219c-7.90197,0 -58.28277,0 -72.06964,0c-2.21326,0 -3.48345,-1.41965 -3.48345,-3.61252z" fill="none" stroke="url(#color-3)" stroke-width="2"/><text transform="translate(212.71407,184.90744) scale(0.39999,0.39999)" font-size="40" xml:space="preserve" data-paper-data="{&quot;index&quot;:null}" fill="url(#color-4)" fill-rule="nonzero" stroke="none" stroke-width="1" stroke-linecap="butt" stroke-linejoin="miter" stroke-miterlimit="10" stroke-dasharray="" stroke-dashoffset="0" font-family="&quot;New Super Mario Font U&quot;, Pixel" font-weight="normal" text-anchor="start" style="mix-blend-mode: normal"><tspan x="0" dy="0">Credit</tspan></text><text transform="translate(289.03601,184.33382) scale(0.36115,0.36115)" font-size="40" xml:space="preserve" data-paper-data="{&quot;index&quot;:null}" fill="url(#color-5)" fill-rule="nonzero" stroke="none" stroke-width="1" stroke-linecap="butt" stroke-linejoin="miter" stroke-miterlimit="10" stroke-dasharray="" stroke-dashoffset="0" font-family="&quot;LINESeedJP_TTF_Th&quot;, Sans Serif" font-weight="normal" text-anchor="start" style="mix-blend-mode: normal"><tspan x="0" dy="0">Made by: koromoko10</tspan></text></g></g></svg>