<svg version="1.1" xmlns="http://www.w3.org/2000/svg" xmlns:xlink="http://www.w3.org/1999/xlink" width="435.98614" height="81.90928" viewBox="0,0,435.98614,81.90928"><defs><linearGradient x1="320" y1="260.40928" x2="320" y2="180" gradientUnits="userSpaceOnUse" id="color-1"><stop offset="0" stop-color="#ffffff" stop-opacity="0.50196"/><stop offset="1" stop-color="#badae5" stop-opacity="0.6"/></linearGradient></defs><g transform="translate(-102.00693,-179.24999)"><g stroke-miterlimit="10"><path d="M109.47526,180c29.08363,0 363.63338,0 419.79168,0c5.16593,0 7.97613,0.82897 7.97613,1.95417c0,6.42652 0,65.01378 0,76.50473c0,1.25694 -2.69664,1.95037 -7.66168,1.95037c-54.59195,0 -383.42502,0 -417.27607,0c-5.53578,0 -9.54839,-1.26159 -9.54839,-2.86223c0,-7.27957 0,-61.03921 0,-74.49865c0,-1.94498 2.73824,-3.0484 6.71833,-3.0484z" fill="url(#color-1)" stroke-opacity="0.50196" stroke="#6e6e6e" stroke-width="1.5"/><text transform="translate(118.25831,207.42375) scale(0.59285,0.59285)" font-size="40" xml:space="preserve" fill="#a8a8a8" stroke="none" stroke-width="1" font-family="&quot;New Super Mario Font U&quot;, Pixel" font-weight="normal" text-anchor="start"><tspan x="0" dy="0">Text</tspan></text></g></g></svg>