<svg version="1.1" xmlns="http://www.w3.org/2000/svg" xmlns:xlink="http://www.w3.org/1999/xlink" width="273.33334" height="101" viewBox="0,0,273.33334,101"><g transform="translate(-366.66666,-198.56907)"><g stroke-miterlimit="10"><g><g stroke="#838080" stroke-width="0"><path d="M370,286.83196c0,-11.66053 0,-52.37769 0,-72.22222c0,-6.71547 3.51486,-11.04067 9.72222,-11.04067c42.50699,0 211.2728,0 242.22222,0c9.49516,0 18.05556,5.63052 18.05556,11.04067c0,11.07175 0,52.04662 0,72.77778c0,7.37001 -5.39133,12.18155 -11.94444,12.18155c-26.2453,0 -198.85274,0 -246.11111,0c-7.58804,0 -11.94444,-6.6331 -11.94444,-12.73711z" fill-opacity="0.25098" fill="#b5aef2"/><path d="M366.66666,281.83196c0,-11.66053 0,-52.37769 0,-72.22223c0,-6.71547 3.51486,-11.04066 9.72222,-11.04066c42.50698,0 211.27281,0 242.22222,0c9.49516,0 18.05556,5.63052 18.05556,11.04066c0,11.07174 0,52.04662 0,72.77778c0,7.37001 -5.39133,12.18156 -11.94444,12.18156c-26.2453,0 -198.85274,0 -246.11111,0c-7.58804,0 -11.94445,-6.6331 -11.94445,-12.73711z" fill-opacity="0.25098" fill="#aeedf2"/></g><text transform="translate(379.44444,257.32833) scale(0.68827,0.68827)" font-size="40" xml:space="preserve" fill="#a8a8a8" stroke="none" stroke-width="1" font-family="&quot;LINESeedJP_TTF_Th&quot;, Sans Serif" font-weight="normal" text-anchor="start"><tspan x="0" dy="0">テキストの色を編集</tspan></text></g></g></g></svg>