<svg version="1.1" xmlns="http://www.w3.org/2000/svg" xmlns:xlink="http://www.w3.org/1999/xlink" width="48.89736" height="48.89736" viewBox="0,0,48.89736,48.89736"><defs><radialGradient cx="320" cy="180" r="18.94255" gradientUnits="userSpaceOnUse" id="color-1"><stop offset="0" stop-color="#e3ca3b" stop-opacity="0"/><stop offset="1" stop-color="#e3ca3b" stop-opacity="0.50196"/></radialGradient><radialGradient cx="320" cy="180" r="18.94255" gradientUnits="userSpaceOnUse" id="color-2"><stop offset="0" stop-color="#dd3f3f" stop-opacity="0"/><stop offset="1" stop-color="#dd3f3f"/></radialGradient></defs><g transform="translate(-295.55132,-155.55132)"><g data-paper-data="{&quot;isPaintingLayer&quot;:true}" fill-rule="nonzero" stroke-linecap="butt" stroke-linejoin="miter" stroke-miterlimit="10" stroke-dasharray="" stroke-dashoffset="0" style="mix-blend-mode: normal"><path d="M338.94255,180c0,10.46168 -8.48087,18.94255 -18.94255,18.94255c-10.46168,0 -18.94255,-8.48087 -18.94255,-18.94255c0,-10.46168 8.48087,-18.94255 18.94255,-18.94255c10.46168,0 18.94255,8.48087 18.94255,18.94255z" fill="url(#color-1)" stroke="url(#color-2)" stroke-width="0"/><path d="M343.44868,180c0,12.95034 -10.49833,23.44868 -23.44868,23.44868c-12.95035,0 -23.44868,-10.49833 -23.44868,-23.44868c0,-12.95034 10.49833,-23.44868 23.44868,-23.44868c12.95035,0 23.44868,10.49833 23.44868,23.44868z" fill="none" stroke-opacity="0.4549" stroke="#e2ca3b" stroke-width="2"/></g></g></svg>