<svg version="1.1" xmlns="http://www.w3.org/2000/svg" xmlns:xlink="http://www.w3.org/1999/xlink" width="179.54545" height="77.72727" viewBox="0,0,179.54545,77.72727"><defs><linearGradient x1="233.08484" y1="175.90909" x2="400.55153" y2="175.90909" gradientUnits="userSpaceOnUse" id="color-1"><stop offset="0" stop-color="#00817b"/><stop offset="1" stop-color="#561e80"/></linearGradient><linearGradient x1="239.44847" y1="183.63636" x2="406.91516" y2="183.63636" gradientUnits="userSpaceOnUse" id="color-2"><stop offset="0" stop-color="#00817b"/><stop offset="1" stop-color="#561e80"/></linearGradient><linearGradient x1="236.26666" y1="180" x2="403.73335" y2="180" gradientUnits="userSpaceOnUse" id="color-3"><stop offset="0" stop-color="#02faee"/><stop offset="1" stop-color="#9631e1"/></linearGradient><linearGradient x1="260.98547" y1="180.00049" x2="379.01704" y2="180.00049" gradientTransform="translate(-308.95634,-224.62328) scale(1.18381,1.18381)" gradientUnits="userSpaceOnUse" id="color-4"><stop offset="0" stop-color="#9632e1"/><stop offset="1" stop-color="#04f8ee"/></linearGradient></defs><g transform="translate(-230.31818,-139.88771)"><g data-paper-data="{&quot;isPaintingLayer&quot;:true}" fill-rule="nonzero" stroke-linecap="butt" stroke-linejoin="miter" stroke-miterlimit="10" stroke-dasharray="" stroke-dashoffset="0" style="mix-blend-mode: normal"><path d="M230.31818,217.61498v-77.72727h179.54545v77.72727z" fill="#ffffff" stroke="none" stroke-width="0"/><path d="M233.08484,200.13836c0,-13.44935 0,-40.67103 0,-48.22744c0,-3.81073 2.73909,-7.86039 7.50419,-7.86039c29.29085,0 135.13462,0 151.90906,0c4.38367,0 8.05345,3.16249 8.05345,8.00787c0,13.55613 0,40.28489 0,47.78498c0,3.83685 -3.59493,7.92426 -7.90596,7.92426c-16.68817,0 -123.0875,0 -152.20404,0c-4.67417,0 -7.3567,-2.99816 -7.3567,-7.62929z" fill="none" stroke="url(#color-1)" stroke-width="2"/><path d="M239.44847,207.86563c0,-13.44935 0,-40.67103 0,-48.22744c0,-3.81073 2.73909,-7.86038 7.50419,-7.86038c29.29085,0 135.13462,0 151.90906,0c4.38367,0 8.05345,3.16249 8.05345,8.00787c0,13.55613 0,40.28489 0,47.78498c0,3.83685 -3.59493,7.92425 -7.90596,7.92425c-16.68817,0 -123.0875,0 -152.20403,0c-4.67417,0 -7.3567,-2.99816 -7.3567,-7.62928z" fill="none" stroke="url(#color-2)" stroke-width="2"/><path d="M236.26666,204.22927c0,-13.44935 0,-40.67103 0,-48.22744c0,-3.81073 2.73909,-7.86039 7.50419,-7.86039c29.29085,0 135.13463,0 151.90906,0c4.38367,0 8.05344,3.16249 8.05344,8.00787c0,13.55613 0,40.28489 0,47.78498c0,3.83685 -3.59493,7.92426 -7.90596,7.92426c-16.68818,0 -123.0875,0 -152.20403,0c-4.67418,0 -7.3567,-2.99816 -7.3567,-7.62928z" fill="none" stroke="url(#color-3)" stroke-width="2"/><text transform="translate(260.98469,189.74602) scale(0.84473,0.84473)" font-size="40" xml:space="preserve" data-paper-data="{&quot;index&quot;:null}" fill="url(#color-4)" fill-rule="nonzero" stroke="none" stroke-width="1" stroke-linecap="butt" stroke-linejoin="miter" stroke-miterlimit="10" stroke-dasharray="" stroke-dashoffset="0" font-family="&quot;New Super Mario Font U&quot;, Pixel" font-weight="normal" text-anchor="start" style="mix-blend-mode: normal"><tspan x="0" dy="0">START</tspan></text></g></g></svg>